<?xml version="1.0" encoding="UTF-8" standalone="no"?>
<!-- Created with Inkscape (http://www.inkscape.org/) -->

<svg
   version="1.1"
   id="svg2"
   width="912.54669"
   height="314.66666"
   viewBox="0 0 912.54669 314.66666"
   sodipodi:docname="Hunter_Logo_white.eps"
   xmlns:inkscape="http://www.inkscape.org/namespaces/inkscape"
   xmlns:sodipodi="http://sodipodi.sourceforge.net/DTD/sodipodi-0.dtd"
   xmlns="http://www.w3.org/2000/svg"
   xmlns:svg="http://www.w3.org/2000/svg">
  <defs
     id="defs6" />
  <sodipodi:namedview
     id="namedview4"
     pagecolor="#ffffff"
     bordercolor="#000000"
     borderopacity="0.25"
     inkscape:showpageshadow="2"
     inkscape:pageopacity="0.0"
     inkscape:pagecheckerboard="0"
     inkscape:deskcolor="#d1d1d1" />
  <g
     id="g8"
     inkscape:groupmode="layer"
     inkscape:label="ink_ext_XXXXXX"
     transform="matrix(1.3333333,0,0,-1.3333333,0,314.66667)">
    <g
       id="g10"
       transform="scale(0.1)">
      <path
         d="M 377.57,216.289 V 198.18 H 304.391 V 4.67969 H 252.578 V 198.18 H 179.23 v 18.109 h 198.34"
         style="fill:#ffffff;fill-opacity:1;fill-rule:nonzero;stroke:none"
         id="path12" />
      <path
         d="M 604.18,105.488 V 4.67969 H 552.211 V 216.289 H 604.18 V 123.59 h 85.039 v 92.699 h 51.5 V 4.67969 h -51.5 V 105.488 H 604.18"
         style="fill:#ffffff;fill-opacity:1;fill-rule:nonzero;stroke:none"
         id="path14" />
      <path
         d="M 1111.65,216.289 V 198.18 h -106.11 v -69.75 h 88.17 v -18.102 h -88.17 V 26.3711 h 106.11 V 4.67969 H 953.57 V 216.289 h 158.08"
         style="fill:#ffffff;fill-opacity:1;fill-rule:nonzero;stroke:none"
         id="path16" />
      <path
         d="m 1593.78,216.289 h 79.59 c 13.73,0 25.72,-1.437 35.97,-4.301 10.25,-2.859 18.78,-6.859 25.59,-12.008 6.81,-5.152 11.94,-11.261 15.37,-18.339 3.43,-7.071 5.15,-14.77 5.15,-23.09 0,-6.039 -1.17,-11.731 -3.51,-17.09 -2.34,-5.359 -5.62,-10.301 -9.83,-14.832 -4.22,-4.52 -9.31,-8.527 -15.29,-12.008 -5.99,-3.492 -12.57,-6.371 -19.74,-8.66 L 1782.45,4.67969 h -56.49 L 1654.95,100.34 h -9.2 V 4.67969 h -51.97 z m 51.97,-97.379 h 11.23 c 6.35,0 12.23,0.879 17.64,2.649 5.41,1.769 10.09,4.293 14.04,7.57 3.95,3.281 7.05,7.312 9.29,12.101 2.23,4.782 3.35,10.192 3.35,16.219 0,5.621 -0.86,10.77 -2.57,15.449 -1.72,4.68 -4.09,8.723 -7.1,12.102 -3.02,3.379 -6.66,6 -10.93,7.879 -4.26,1.871 -8.89,2.812 -13.89,2.812 h -21.06 V 118.91"
         style="fill:#ffffff;fill-opacity:1;fill-rule:nonzero;stroke:none"
         id="path18" />
      <path
         d="M 2151.94,216.289 V 198.18 H 2045.83 V 128.43 H 2134 v -18.102 h -88.17 V 26.3711 h 106.11 V 4.67969 H 1993.86 V 216.289 h 158.08"
         style="fill:#ffffff;fill-opacity:1;fill-rule:nonzero;stroke:none"
         id="path20" />
      <path
         d="m 2397.72,110.641 c 0,-13.7308 2.08,-25.8519 6.24,-36.3597 4.16,-10.5118 9.68,-19.3204 16.54,-26.4532 6.87,-7.1289 14.78,-12.539 23.72,-16.2265 8.95,-3.6914 18.26,-5.543 27.94,-5.543 7.38,0 14.27,1.2695 20.67,3.8203 6.4,2.5508 12.38,6.0117 17.95,10.3828 5.56,4.3672 10.79,9.418 15.68,15.1367 4.89,5.7227 9.57,11.75 14.05,18.1016 l 21.69,-15.9219 c -4.68,-7.4883 -10.33,-14.7187 -16.93,-21.6875 -6.61,-6.9687 -14.02,-13.1093 -22.24,-18.4101 -8.22,-5.3086 -17.17,-9.55081 -26.84,-12.71878 C 2486.51,1.58984 2476.27,0 2465.45,0 c -18.21,0 -34.99,2.64844 -50.33,7.96094 -15.34,5.30076 -28.58,12.78906 -39.71,22.46876 -11.14,9.6719 -19.82,21.3008 -26.07,34.8789 -6.24,13.5703 -9.36,28.6797 -9.36,45.3324 0,16.121 2.97,30.949 8.9,44.468 5.93,13.532 14.28,25.211 25.04,35.039 10.77,9.832 23.67,17.5 38.7,23.012 15.04,5.52 31.66,8.27 49.86,8.27 12.17,0 23.3,-1.43 33.4,-4.289 10.09,-2.86 19.27,-6.813 27.54,-11.86 8.27,-5.043 15.66,-11.082 22.16,-18.101 6.5,-7.02 12.25,-14.739 17.24,-23.168 l -21.85,-15.293 c -4.47,6.34 -9.33,12.32 -14.59,17.941 -5.25,5.621 -10.84,10.531 -16.77,14.75 -5.93,4.211 -12.17,7.539 -18.73,9.988 -6.55,2.442 -13.37,3.661 -20.44,3.661 -9.68,0 -18.91,-1.821 -27.7,-5.457 -8.79,-3.641 -16.51,-9.024 -23.17,-16.153 -6.66,-7.129 -11.97,-15.937 -15.92,-26.449 -3.95,-10.512 -5.93,-22.629 -5.93,-36.359"
         style="fill:#ffffff;fill-opacity:1;fill-rule:nonzero;stroke:none"
         id="path22" />
      <path
         d="m 2769.51,216.289 h 52.12 v -79.59 l 93.94,79.59 h 40.26 L 2849.87,126.711 2984.07,4.67969 h -62.88 L 2821.63,95.3516 V 4.67969 h -52.12 V 216.289"
         style="fill:#ffffff;fill-opacity:1;fill-rule:nonzero;stroke:none"
         id="path24" />
      <path
         d="m 3268.47,0 c -17.06,0 -32.98,2.76172 -47.75,8.26953 -14.77,5.51177 -27.57,13.24217 -38.39,23.17187 -10.82,9.9375 -19.32,21.75 -25.51,35.4297 -6.19,13.6797 -9.29,28.6797 -9.29,45.0199 0,16.019 3.1,30.711 9.29,44.078 6.19,13.371 14.69,24.84 25.51,34.41 10.82,9.57 23.62,17.012 38.39,22.32 14.77,5.301 30.69,7.949 47.75,7.949 17.06,0 32.95,-2.668 47.68,-8.027 14.72,-5.359 27.51,-12.82 38.38,-22.402 10.88,-9.571 19.43,-20.981 25.67,-34.25 6.25,-13.258 9.37,-27.797 9.37,-43.61 0,-11.238 -1.41,-21.8277 -4.22,-31.7574 -2.81,-9.9414 -6.81,-19.0625 -12.01,-27.3907 -5.2,-8.3203 -11.45,-15.7617 -18.73,-22.3125 -7.28,-6.5586 -15.42,-12.1171 -24.42,-16.6992 -9,-4.57811 -18.7,-8.08982 -29.1,-10.52732 C 3290.68,1.21875 3279.81,0 3268.47,0 Z m 0,17.7891 c 10.3,0 19.4,2.3711 27.31,7.1015 7.91,4.7305 14.51,11.2578 19.82,19.5782 5.3,8.332 9.34,18.2421 12.09,29.7304 2.76,11.5 4.14,24.0625 4.14,37.6918 0,13.418 -1.38,25.687 -4.14,36.828 -2.75,11.133 -6.79,20.703 -12.09,28.711 -5.31,8.011 -11.91,14.25 -19.82,18.718 -7.91,4.481 -17.01,6.711 -27.31,6.711 -10.4,0 -19.56,-2.23 -27.46,-6.711 -7.91,-4.468 -14.52,-10.707 -19.82,-18.718 -5.31,-8.008 -9.31,-17.578 -12.02,-28.711 -2.7,-11.141 -4.05,-23.41 -4.05,-36.828 0,-13.6293 1.35,-26.1918 4.05,-37.6918 2.71,-11.4883 6.71,-21.3984 12.02,-29.7304 5.3,-8.3204 11.91,-14.8477 19.82,-19.5782 7.9,-4.7304 17.06,-7.1015 27.46,-7.1015"
         style="fill:#ffffff;fill-opacity:1;fill-rule:nonzero;stroke:none"
         id="path26" />
      <path
         d="m 3611.84,216.289 h 33.24 L 3765.71,81.7695 V 216.289 h 32.46 V 1.55859 h -22.32 L 3644.77,150.121 V 4.67969 h -32.93 V 216.289"
         style="fill:#ffffff;fill-opacity:1;fill-rule:nonzero;stroke:none"
         id="path28" />
      <path
         d="m 4033.39,216.289 h 51.81 V 4.67969 h -51.81 V 216.289"
         style="fill:#ffffff;fill-opacity:1;fill-rule:nonzero;stroke:none"
         id="path30" />
      <path
         d="m 4314.03,216.289 h 33.24 L 4467.9,81.7695 V 216.289 h 32.45 V 1.55859 h -22.31 L 4346.96,150.121 V 4.67969 h -32.93 V 216.289"
         style="fill:#ffffff;fill-opacity:1;fill-rule:nonzero;stroke:none"
         id="path32" />
      <path
         d="M 4833.14,107.828 H 4921 V 26.3711 c -6.77,-3.6406 -13.53,-6.9727 -20.29,-9.9805 -6.76,-3.0195 -13.99,-5.6211 -21.69,-7.81247 -7.7,-2.17969 -16.1,-3.89844 -25.2,-5.14844 -9.11,-1.25 -19.33,-1.8711 -30.67,-1.8711 -18.2,0 -34.98,2.55079 -50.32,7.65235 -15.35,5.08986 -28.61,12.26956 -39.8,21.52736 -11.18,9.2617 -19.89,20.4414 -26.13,33.5508 -6.25,13.1093 -9.37,27.6211 -9.37,43.5389 0,16.852 3.12,32.25 9.37,46.192 6.24,13.941 14.92,25.91 26.06,35.89 11.13,9.988 24.37,17.738 39.71,23.25 15.35,5.52 32.12,8.27 50.33,8.27 10.71,0 21.04,-1.45 30.97,-4.36 9.94,-2.922 19.12,-6.769 27.55,-11.55 8.42,-4.79 16.02,-10.282 22.78,-16.469 6.76,-6.192 12.33,-12.563 16.7,-19.11 l -21.38,-19.511 c -4.48,6.351 -9.16,12.23 -14.05,17.64 -4.89,5.41 -10.09,10.11 -15.6,14.121 -5.52,4 -11.42,7.149 -17.71,9.438 -6.3,2.293 -13.03,3.43 -20.21,3.43 -10.93,0 -21.09,-1.969 -30.51,-5.93 -9.41,-3.949 -17.58,-9.649 -24.5,-17.09 -6.92,-7.43 -12.33,-16.559 -16.23,-27.379 -3.9,-10.82 -5.85,-23.101 -5.85,-36.832 0,-13.7264 2.08,-25.8475 6.24,-36.3592 4.16,-10.5079 9.83,-19.3477 17.01,-26.5274 7.18,-7.1797 15.58,-12.6133 25.2,-16.3008 9.63,-3.6992 19.95,-5.539 30.98,-5.539 6.55,0 12.74,0.8476 18.57,2.5703 5.82,1.7187 11.18,4.3398 16.07,7.8789 v 56.1797 h -35.89 v 18.0975"
         style="fill:#ffffff;fill-opacity:1;fill-rule:nonzero;stroke:none"
         id="path34" />
      <path
         d="m 118.578,2245.56 5.633,-0.03 11.051,-39.47 -5.66,-5.6 -22.524,0.12 c -11.2382,3.81 -16.8085,15.1 -16.7069,33.87 l 0.0273,5.63 z m -67.7264,-33.42 11.1992,-11.32 -39.5899,-33.57 -11.2617,0.06 L 0,2178.63 l 5.66016,5.6 c 11.26174,-0.06 16.92964,7.42 17.01174,22.43 z m 1125.5384,51.74 11.2,-11.32 -0.03,-5.63 -11.26,0.06 -11.2,11.32 5.66,5.6 z m -140.8,-10.51 56.27,-5.93 -5.72,-16.86 c 6.46,-18.8 15.8,-28.23 28,-28.3 l -0.15,-28.14 c -0.1,-18.77 20.49,-52.32 61.77,-52.54 l 5.6,-5.66 -0.06,-11.26 -28.33,-33.63 11.2,-11.32 -11.32,-11.19 c -12.07,22.58 -32.66,33.95 -61.74,34.1 l -0.06,-11.26 c 3.68,-13.15 20.48,-30.13 50.39,-50.93 l -0.06,-11.26 c 11.26,-0.06 16.87,-3.84 16.83,-11.35 -18.78,-2.72 -28.19,-8.3 -28.24,-16.74 l -0.12,-22.52 16.89,-0.09 28.12,-5.78 -0.09,-16.89 c -26.29,-4.55 -39.47,-11.98 -39.53,-22.31 l -0.06,-11.25 33.78,-0.18 22.46,-11.38 -0.21,-39.41 c -15.01,0.08 -30.12,-18.61 -45.34,-56.06 l -0.06,-11.26 c 11.26,-0.06 16.87,-3.84 16.83,-11.35 l -11.32,-11.2 -16.82,11.35 -5.66,-5.6 -0.06,-11.26 c 9.38,-0.05 24.33,-11.38 44.85,-34.01 l -0.03,-5.63 -5.66,-5.6 -0.03,-5.63 -5.6,5.66 -16.89,0.09 -5.83,-39.38 -0.06,-11.26 -5.63,0.03 c -29.87,30.19 -52.31,45.32 -67.32,45.4 -3.82,-12.18 -11.36,-19.65 -22.64,-22.4 l 0.18,33.78 17.01,22.43 0.06,11.25 c 0.04,7.51 -18.69,15.12 -56.18,22.82 l -56.319,-5.33 -135.113,0.72 -0.058,-11.26 c -0.079,-14.07 20.5,-25.44 61.742,-34.1 l -0.063,-11.26 c -14.07,0.07 -29.129,-9.23 -45.187,-27.91 l -5.621,0.03 c -16.852,8.53 -31.711,36.76 -44.59,84.68 -19.653,11.37 -42.129,17.12 -67.473,17.25 l -22.578,-11.14 -5.602,5.66 -5.66,-5.6 0.032,5.63 -5.661,-5.6 -5.621,0.03 -33.75,5.81 -90.136,-10.78 -33.743,5.81 -5.66,-5.6 -5.629,0.03 -45.011,5.87 -67.649,-16.53 -28.109,5.78 -50.942,-50.4 -0.089,-16.88 5.601,-5.66 5.629,-0.03 c 13.129,-0.07 30.121,18.6 50.961,56.02 l 11.258,-0.06 -0.149,-28.15 -11.261,0.06 10.929,-61.98 -22.508,0.12 -16.832,11.35 -5.66,-5.6 -0.148,-28.15 11.262,-0.06 -0.032,-5.63 5.66,5.6 22.508,-0.12 5.422,-39.44 c -3.851,-19.68 -20.82,-34.6 -50.898,-44.76 -9.563,-33.73 -20.942,-56.19 -34.141,-67.38 l 11.141,-22.58 c -18.774,0.1 -28.172,-3.6 -28.211,-11.11 -0.09,-16.89 9.187,-35.7 27.847,-56.44 l -0.027,-5.63 -33.723,11.43 -0.089,-16.88 c 26.972,-45.19 68.14,-67.92 123.492,-68.22 4.64,-11.28 45.82,-30.27 123.558,-56.96 1.789,-15.02 7.379,-22.55 16.77,-22.6 l 16.883,-0.09 5.66,5.6 5.598,-5.66 16.89,-0.09 16.949,11.17 56.18,-22.82 16.981,16.8 5.628,-0.03 -11.078,33.83 0.059,11.26 50.57,-17.16 45.192,27.91 11.257,-0.06 33.692,-17.07 -0.031,-5.63 -5.778,-28.11 c 26.27,-0.14 39.321,-17.1 39.141,-50.88 l 5.629,-0.03 5.66,5.6 5.617,-0.03 -5.59,5.66 0.09,16.89 22.602,16.77 -11.078,33.83 33.988,39.23 c -4.61,15.04 -21.461,22.64 -50.539,22.79 l 28.289,28 22.488,-5.75 c 17.891,11.16 38.563,16.68 62.024,16.56 l 28.117,-5.78 5.66,5.6 0.062,11.26 -5.48,28.18 c 33.799,4.51 50.759,17.55 50.869,39.13 l 5.63,-0.03 22.43,-17.01 22.61,16.77 0.06,11.26 c -15.01,0.08 -22.47,9.51 -22.37,28.27 15.05,7.43 22.61,16.77 22.67,28.03 l 22.49,-5.75 22.55,5.51 5.6,-5.66 -0.03,-5.63 22.6,16.77 0.03,5.63 c -3.69,11.28 -14.92,16.97 -33.68,17.07 l 0.03,5.63 11.35,16.83 -11.2,11.32 -22.55,-5.51 c -14.99,3.83 -22.46,11.38 -22.4,22.63 2.87,11.25 14.18,20.57 33.93,27.97 22.52,-0.12 33.71,-11.44 33.59,-33.95 l 11.26,-0.06 22.61,16.76 5.63,-0.03 -0.09,-16.88 c -18.83,-13.04 -28.28,-24.25 -28.33,-33.63 4.61,-15.98 17.66,-32.94 39.14,-50.88 l 5.33,-56.33 c -11.26,0.06 -16.91,-3.66 -16.95,-11.17 l -0.06,-11.25 c 6.49,-15.05 19.59,-22.63 39.29,-22.73 l 16.89,-0.09 -0.06,-11.26 c -7.56,-9.34 -13.29,-28.08 -17.19,-56.21 l -11.26,0.06 -11.35,-16.83 11.17,-16.95 -28.33,-33.62 5.6,-5.66 5.63,-0.03 28.21,11.11 5.6,-5.66 -0.03,-5.63 c -3.81,-11.24 -15.1,-16.81 -33.87,-16.71 l -16.89,0.09 -16.83,11.35 -16.88,0.09 5.48,-28.18 -5.63,0.03 -28.18,-5.48 -22.49,5.75 c -15.01,0.08 -22.59,-13.02 -22.73,-39.29 l -11.26,0.06 -4.7,-123.79 11.11,-28.21 -5.66,-5.6 -0.03,-5.63 5.48,-28.18 -5.78,-28.12 11.26,-0.059 -0.03,-5.632 5.66,5.601 11.26,-0.058 11.2,-11.313 c -22.57,-8.328 -33.87,-15.777 -33.9,-22.34 l -0.06,-11.258 c 7.51,-0.043 11.22,-7.57 11.14,-22.582 l 16.86,-5.718 c -6.67,-18.731 -16.1,-28.063 -28.3,-28 l -0.09,-16.891 28.15,-0.148 -0.06,-11.262 -5.66,-5.602 c -0.08,-15.008 11.14,-22.578 33.66,-22.699 l 5.51,-22.539 -5.66,-5.602 -22.46,11.383 -22.55,-5.511 -0.09,-16.891 45.01,-5.867 c -15.1,-15.871 -22.69,-30.852 -22.76,-44.922 15.01,-0.078 22.5,-3.871 22.46,-11.379 l -11.35,-16.832 5.6,-5.66 c -3.94,-33.75 -9.66,-50.61 -17.16,-50.571 l 16.68,-39.5 -22.58,-11.136 -16.86,5.718 c -11.33,-14.019 -17.03,-27.121 -17.1,-39.32 l -0.48,-90.07 5.33,-56.328 -159.22,0.808 c -7.5,0.039 -13.032,18.84 -16.59,56.391 l 5.75,22.488 -5.602,5.653 -11.25,0.058 -16.976,-16.789 5.597,-5.66 -0.031,-5.633 -5.656,-5.598 5.629,-0.031 -5.66,-5.597 -0.121,-22.524 5.601,-5.656 -0.031,-5.633 -11.32,-11.199 -22.461,11.379 -33.84,-11.078 c -12.199,0.058 -17.668,30.121 -16.41,90.16 0.14,26.277 3.961,39.39 11.472,39.347 l -5.601,5.661 0.269,50.671 c 0.082,14.071 9.551,30.911 28.422,50.508 l 0.027,5.633 c -11.257,0.059 -16.867,3.848 -16.828,11.348 l 0.032,5.633 c 22.539,3.636 33.828,9.207 33.867,16.707 l -11.199,11.32 0.031,5.633 11.258,-0.063 0.062,11.262 -11.262,0.059 -11.32,-11.2 5.602,-5.66 -5.661,-5.601 -16.89,0.089 -11.199,11.321 0.121,22.519 5.75,22.492 -5.512,22.551 11.262,-0.062 5.597,-5.66 5.629,-0.028 0.09,16.891 -22.519,0.117 0.242,45.031 5.629,-0.031 5.601,-5.66 5.629,-0.027 -5.66,-5.602 -0.059,-11.262 11.2,-11.308 17.039,28.05 0.031,5.629 -16.891,0.09 0.032,5.629 5.777,28.121 -33.598,33.961 5.66,5.602 5.629,-0.032 11.2,-11.32 5.929,56.27 -16.89,0.09 5.781,28.109 -11.199,11.32 0.238,45.041 -5.508,22.55 c 4.988,56.27 16.399,84.36 34.231,84.26 l 0.089,16.89 -67.441,22.88 -11.41,-28.09 -11.262,0.06 0.094,16.89 -90.043,6.11 -157.66,-4.79 -11.528,-50.61 5.481,-28.17 -0.094,-16.89 -6.289,-123.83 11.199,-11.309 -0.058,-11.261 -11.258,0.058 -0.094,-16.886 5.633,-0.032 0.059,11.258 11.261,-0.058 c 9.379,-0.051 16.789,-19.918 22.258,-49.969 -0.051,-10.321 -15.18,-30.891 -45.367,-61.692 l -0.094,-16.89 16.774,-22.61 -16.981,-16.789 5.598,-5.66 106.972,-0.57 -0.089,-16.891 -11.321,-11.199 -5.601,5.66 -17.129,-44.949 -0.031,-5.633 11.171,-16.949 -0.062,-11.258 C 522.32,637.762 509.141,630.32 509.102,622.809 l -0.063,-11.258 33.691,-17.063 22.551,5.512 -0.062,-11.262 C 565.16,577.48 538.84,568.23 486.25,561.012 l -0.121,-22.524 16.859,-5.718 33.813,5.449 -0.063,-11.258 -56.359,-10.961 0.031,5.629 c -15.039,-5.551 -22.57,-20.758 -22.601,-26.391 l 5.589,-5.66 -5.648,-5.598 -0.359,-67.558 -16.981,-16.801 -33.781,0.18 0.031,5.629 5.719,16.859 -16.891,0.09 -16.859,5.723 -0.027,-5.633 c -0.082,-15.008 -3.872,-22.5 -11.383,-22.457 l -22.52,0.117 c -18.758,0.101 -28.129,3.91 -28.09,11.41 l -5.66,-5.598 -16.879,0.09 5.66,5.598 0.09,16.891 -16.859,5.718 5.75,22.492 c -5.551,15.04 -11.141,22.579 -16.77,22.61 L 260.68,467.371 C 260.602,452.359 246.359,444.898 227.602,445 l -0.063,-11.262 21.582,-22.609 -0.062,-11.25 -10.438,0.031 c -13.082,11.32 -39.941,0.531 -56.832,0.621 l -4.5,133.949 16.949,11.168 c -0.039,-7.507 5.571,-11.289 16.832,-11.347 l 44.25,5.418 0.032,5.633 c -14.082,0.07 -35.731,9.546 -55.332,28.418 l -16.891,0.089 0.66,123.852 -5.508,22.551 11.469,39.34 -11.199,11.32 0.027,5.629 11.262,-0.063 -5.481,28.184 11.321,11.199 -16.86,5.719 5.66,5.601 0.122,22.52 -5.602,5.66 11.551,55.418 -11.172,16.941 c 0.109,21.59 15.23,42.149 45.359,61.692 l 0.063,11.258 -5.629,0.03 -16.942,-11.171 -16.89,0.09 0.269,50.671 c 0.141,26.27 -3.55,39.43 -11.05,39.46 l 11.382,22.46 -5.601,5.66 c 0.262,48.79 13.519,73.12 39.789,72.98 l 11.32,11.2 c -21.551,4.8 -40.269,14.29 -56.14,28.45 l 0.121,22.51 11.468,39.35 -5.269,67.59 11.262,-0.06 -11.02,45.09 0.359,67.56 5.809,33.75 -5.539,16.92 11.398,28.09 -16.789,16.97 39.461,11.05 -16.558,62.02 -5.66,-5.6 -16.883,0.09 0.269,50.67 5.633,-0.03 16.82,-11.35 0.118,22.52 c -11.258,0.06 -16.868,3.84 -16.829,11.35 l 0.09,16.88 5.66,5.6 -11.16,16.95 5.711,16.86 -11.011,45.1 5.71,16.86 -11.128,22.58 5.976,67.52 -11.156,16.95 11.308,11.2 -5.468,28.18 22.539,5.51 0.09,16.89 -16.86,5.72 5.778,28.11 -10.911,90.86 17.25,67.46 -16.769,22.61 5.66,5.6 11.262,-0.06 -0.063,-11.26 11.262,-0.06 0.09,16.89 -11.168,16.95 5.656,5.6 16.891,-0.09 5.601,-5.66 5.66,5.6 38.59,-0.18 28.121,-5.78 33.797,5.45 11.262,-0.06 28.121,-5.78 33.809,5.45 33.781,-0.18 73.059,-22.91 -0.09,-16.89 -33.782,0.18 -0.089,-16.89 c 26.261,-3.89 39.363,-9.59 39.32,-17.09 -32.008,-21.41 -49.059,-52.41 -51.098,-83.36 -1,-11.25 15.758,-59.8 50.27,-97.51 l -5.86,-45.01 -5.632,0.03 -28.118,5.78 -5.781,-28.12 5.602,-5.66 33.777,-0.18 -0.059,-11.26 c -11.261,0.06 -16.941,-9.29 -17.039,-28.05 -0.062,-11.26 14.918,-16.97 44.938,-17.13 l -0.117,-22.52 -11.262,0.06 -0.031,-5.63 c -0.047,-10.32 26.16,-21.72 78.64,-34.2 0.039,7.51 5.692,11.23 16.95,11.17 l 50.64,-5.9 11.313,11.2 45.008,-5.87 c 3.82,12.18 11.371,19.64 22.64,22.4 l 33.75,-5.81 0.899,168.89 5.902,50.64 -5.602,5.66 0.032,5.62 5.781,28.12 -5.602,5.66 11.77,119.7 -5.481,28.18 39.43,5.42 73.191,-0.39 22.551,5.51 5.598,-5.66 5.633,-0.03 z m -945.5509,-80.85 16.8589,-5.72 -0.148,-28.15 -39.3398,11.47 z m 1080.4809,46.35 c 13.08,-11.33 33.69,-17.07 61.84,-17.22 l 5.6,-5.66 -0.06,-11.25 -45.04,0.24 c -19.7,0.1 -30.93,5.79 -33.69,17.06 z m -901.051,-52.31 -0.09,-16.89 11.262,-0.06 0.031,5.63 z m 39.222,-33.99 -0.16,-32.96 11.258,-0.06 5.672,10.41 5.629,-0.03 -5.449,33.81 -5.629,0.03 z m -185.402,-60.74 11.262,-0.06 -0.09,-16.89 -11.262,0.06 z m 511.223,-99.35 28.109,-5.78 -0.031,-5.63 -11.309,-11.2 -5.633,0.03 -22.457,11.38 z m 179.457,-130.44 -5.66,-5.6 -0.028,-5.63 5.598,-5.66 5.633,-0.03 5.648,5.6 0.031,5.63 -5.589,5.66 z m -394.321,-42.94 -0.058,-11.26 5.629,-0.03 11.32,11.2 z m 681.192,-3.63 -5.66,-5.6 -0.03,-5.63 11.2,-11.32 5.63,-0.03 0.06,11.26 z m -816.481,-29.43 11.2,-11.32 5.632,-0.03 -11.203,11.32 z m 816.181,-26.86 -0.03,-5.63 5.63,-0.03 11.32,11.2 0.03,5.62 -5.63,0.03 z m -219.649,-15.72 5.629,-0.03 c 48.75,-8.71 73.089,-18.22 73.039,-28.54 l -16.981,-16.8 -11.258,0.06 c 0.078,15.95 -14.879,25.41 -44.89,28.39 l -5.602,5.66 z M 1132.7,1435 l -0.09,-16.89 28.11,-5.78 0.03,5.63 -5.48,28.17 -11.25,0.06 z m 157.51,-23.36 c 12.14,-10.39 44,-18.06 95.58,-23.03 l 11.17,-16.95 -0.03,-5.63 -5.6,5.66 -39.44,-5.42 -22.52,0.12 -0.09,-16.89 5.6,-5.66 -0.03,-5.63 -5.66,-5.6 -5.63,0.03 -39.01,73.4 z m 78.45,-67.98 5.6,-5.66 -0.03,-5.63 -11.32,-11.2 -5.63,0.03 0.06,11.26 z m -726.25,-1.76 5.629,-0.03 11.199,-11.32 -0.058,-11.26 -16.891,0.09 z m 517.65,-53.43 -0.02,-5.63 11.19,-11.31 5.63,-0.03 0.09,16.88 z m -242.341,-49.37 -11.348,-16.83 5.598,-5.66 -0.028,-5.63 22.579,11.14 -0.059,-11.26 28.148,-0.15 0.032,5.63 z m -360.449,-26.23 11.199,-11.32 11.261,-0.06 -11.199,11.32 z m 33.718,-11.44 5.602,-5.66 5.629,-0.03 11.32,11.2 0.031,5.63 -11.261,0.06 z m 281.512,4.13 c 2.66,-30.04 8.211,-45.08 16.648,-45.13 l 11.262,-0.06 c 0.149,28.15 -5.398,43.19 -16.648,45.13 z m -28.441,-56.15 -0.09,-16.89 22.48,-5.75 28.18,5.48 0.031,5.63 -11.199,11.32 z m 61.863,-11.59 -0.031,-5.63 16.89,-0.09 0.059,11.26 z m -704.91,-378.281 -0.09,-16.879 39.379,-5.84 0.09,16.879 -28.121,5.781 z m 314.316,-24.16 -0.058,-11.258 16.89,-0.09 0.059,11.258 z M 234.371,680.551 c -0.062,-10.321 -9.492,-19.653 -28.301,-28 l -0.031,-5.629 28.121,-5.781 5.66,5.597 10.41,-5.66 22.52,-0.117 0.031,5.629 -22.34,33.898 z m 26.82,-95.821 -0.089,-16.89 11.257,-0.059 11.321,11.199 0.09,16.879 -11.258,0.063 z m 118.129,-17.519 -0.148,-28.152 22.277,-54.778 5.629,-0.031 11.32,11.199 c -7.468,7.539 -11.128,34.082 -10.988,60.352 l -16.832,11.347 z m 489.739,-9.063 5.543,-16.918 -5.782,-28.121 5.602,-5.66 5.629,-0.027 22.66,28.027 c -3.672,15.031 -14.891,22.602 -33.652,22.699 z m 506.481,-36.476 16.89,-0.094 -0.03,-5.617 -11.32,-11.199 -5.6,5.66 z M 305.48,434.121 327.988,434 c 7.512,-0.039 11.313,9.32 11.41,28.09 l 28.153,-0.149 0.027,5.629 -45.039,0.239 c -6.559,0.031 -12.25,-11.188 -17.059,-33.688"
         style="fill:#ffffff;fill-opacity:1;fill-rule:nonzero;stroke:none"
         id="path36" />
      <path
         d="m 1389.38,2233.04 28.12,-5.78 73.21,5.24 11.17,-16.95 -0.75,-157.58 11.2,-11.32 5.75,22.49 -5.42,39.43 0.48,106.92 16.98,16.8 16.89,-0.09 72.34,-5.99 5.66,5.6 22.12,-73.31 -11.46,-56.19 5.59,-5.66 -5.77,-28.11 -0.39,-73.19 -5.75,-22.49 5.42,-39.44 -2.28,-427.85 4.91,-135.14 -5.81,-33.75 5.39,-45.06 -5.75,-22.49 5.15,-90.11 -0.48,-90.07 -6.08,-84.42 -5.63,0.03 c -11.88,60.12 -25.91,90.19 -32.48,90.23 l -0.06,-11.26 15.77,-56.36 c -7.52,-1.83 -19.88,-11.18 -27.48,-28.029 24.4,-0.129 45.89,-39.621 54.85,-118.493 -2.06,-33.769 -5.9,-50.628 -11.53,-50.597 l -22.55,-5.512 -27.3,5.75 -5.63,0.031 -0.06,-11.261 5.63,-0.028 c 27.21,-0.152 59.59,-20.941 87.52,-62.371 l 63.61,-101.699 -39.59,-33.57 5.51,-22.551 5.63,-0.031 c 7.51,-0.039 11.31,9.32 11.41,28.089 l 28.12,-5.777 16.92,5.539 11.14,-22.582 -16.98,-16.797 -0.06,-11.261 c -0.06,-11.258 7.42,-16.93 22.43,-17.008 l 33.84,11.078 c 1.79,-15.02 7.38,-22.559 16.77,-22.61 l 16.92,5.54 33.74,-5.809 11.26,-0.063 5.66,5.602 5.63,-0.031 -0.03,-5.629 -5.72,-16.852 5.6,-5.66 5.63,-0.027 22.64,22.39 -5.51,22.547 5.63,-0.027 28.12,-5.781 0.12,22.519 -45.04,0.242 -16.95,-11.171 -22.52,0.121 -11.2,11.32 62.14,39.078 0.09,16.891 c -25.33,0.129 -42.18,7.73 -50.55,22.789 l -39.43,-5.418 -11.26,0.058 0.03,5.629 c 56.45,29.723 84.7,48.34 84.74,55.84 14.07,-0.066 27.42,39.274 40.04,118.024 l 0.06,11.257 -5.21,78.84 11.41,28.09 -11.08,33.84 0.03,5.633 5.66,5.598 -5.6,5.66 0.75,140.74 -5.48,28.17 11.32,11.2 -22.46,11.38 5.78,28.12 c -11.26,0.06 -16.87,3.84 -16.83,11.35 l 28.51,67.41 0.87,163.26 6.17,101.3 -5.45,33.81 5.9,50.63 -5.12,95.74 5.65,5.6 0.03,5.63 -5.51,22.55 6.23,112.56 -28.02,22.67 16.94,11.17 16.89,-0.09 16.74,-28.24 -0.09,-16.89 -11.35,-16.83 5.6,-5.66 5.63,-0.03 5.75,22.49 5.6,-5.66 5.63,-0.03 5.66,5.6 -0.21,-39.41 5.63,-0.03 16.98,16.8 0.09,16.89 -22.49,5.75 5.66,5.6 0.03,5.63 -5.42,39.44 22.61,16.76 0.03,5.63 -33.66,22.7 -5.63,0.03 0.03,5.63 11.35,16.83 c 0.06,11.26 -5.54,16.92 -16.8,16.98 l -5.6,5.66 0.03,5.63 -5.66,-5.6 -5.63,0.03 -11.2,11.32 11.44,55.37 -5.48,28.18 28.21,11.11 0.09,16.88 -16.89,0.09 c 5.71,14.99 11.38,22.46 17.01,22.43 l 16.89,-0.09 33.6,-33.96 5.63,-0.03 c 0.04,8.45 13.28,27.14 39.71,56.09 l 0.09,16.89 -5.54,16.92 73.18,-0.39 5.66,5.6 c 52.54,-0.28 78.72,-19.19 78.52,-56.72 l -0.72,-156.76 10.96,-56.36 -5.63,0.03 c 13.87,-37.6 32.54,-56.47 55.99,-56.59 l 5.66,5.6 5.6,-5.66 -0.06,-11.26 -5.66,-5.6 c -26.33,-12.06 -39.52,-21.37 -39.56,-27.94 18.75,-4.79 28.1,-10.47 28.06,-17.04 -0.05,-10.32 -16.98,-17.73 -50.78,-22.25 l -0.06,-11.26 -5.63,0.03 5.54,-16.91 28.17,5.48 c -0.1,-18.77 14.87,-28.23 44.89,-28.39 l 16.8,-16.98 c -30.02,0.16 -45.09,-9.14 -45.19,-27.91 l -39.4,0.21 0.06,11.26 -5.63,0.03 -0.21,-39.41 5.48,-28.18 -5.81,-33.74 -0.51,-95.71 5.48,-28.18 -5.81,-33.74 -0.42,-78.82 c -0.17,-31.9 5.34,-54.45 16.53,-67.64 l -16.92,-5.54 -0.48,-90.08 5.45,-33.81 -5.78,-28.11 -0.03,-5.63 11.17,-16.95 -11.44,-33.72 -0.75,-140.74 -5.78,-28.121 5.45,-33.809 -0.66,-123.851 c -0.33,-62.86 -17.53,-120.95 -51.6,-174.25 l 5.54,-16.918 5.63,-0.032 c 19.71,-0.097 31,5.469 33.87,16.711 l -5.6,5.66 0.03,5.629 56.42,22.219 -0.06,-11.258 c -12.2,0.059 -19.78,-13.031 -22.73,-39.289 l -28.21,-11.109 -11.26,0.058 -5.6,5.661 c -39.48,-12.922 -67.72,-31.539 -84.74,-55.84 -7.51,0.039 -15.06,-9.313 -22.67,-28.031 -91.41,-74.579 -179.81,-111.641 -265.19,-111.192 l -22.55,-5.508 -5.63,0.032 c -13.14,0.07 -28.11,7.66 -44.92,22.757 l -28.15,0.153 -16.95,-11.172 c -66.58,6.93 -143.31,46.738 -230.18,119.449 -33.57,39.59 -50.31,67.832 -50.22,84.723 l 5.66,5.597 c -26.27,0.141 -50.37,56.563 -72.28,169.282 l 5.8,33.75 -5.53,16.91 5.74,22.488 -5.18,84.481 17.04,28.058 c -11.18,14.133 -16.74,27.301 -16.68,39.492 l 0.42,78.82 c 0.04,7.5 7.57,11.22 22.58,11.14 l 0.09,16.89 c -15.01,0.08 -22.49,5.75 -22.43,17.01 l 0.48,90.07 11.35,16.83 0.06,11.26 -11.17,16.95 0.12,22.51 28.54,73.04 -5.63,0.03 -16.92,-5.54 0.03,5.63 -5.6,5.66 5.66,5.6 0.15,28.15 -5.6,5.66 5.66,5.6 0.12,22.52 -5.6,5.66 c 0.12,22.51 15.2,33.69 45.22,33.53 l 16.86,-5.72 0.03,5.63 -5.54,16.92 c 0.19,36.59 30.39,68.34 90.58,95.23 14.99,-5.71 22.43,-17.01 22.34,-33.9 l 5.63,-0.03 16.98,16.8 5.63,-0.03 0.09,16.89 -16.86,5.72 5.72,16.85 -16.86,5.72 0.06,11.26 11.35,16.83 -11.08,33.84 11.35,16.83 0.03,5.63 c -11.26,0.06 -16.87,3.84 -16.83,11.35 l 5.84,39.38 -11.11,28.2 17.04,28.06 -22.19,62.05 16.92,5.54 0.03,5.63 c -11.18,14.13 -16.74,27.3 -16.68,39.49 l 5.93,56.27 -10.99,50.73 -5.63,0.03 -0.06,-11.26 -5.63,0.03 5.54,-16.92 -5.78,-28.12 5.42,-39.44 -5.66,-5.6 -5.63,0.03 -16.83,11.35 -16.94,-11.17 -11.26,0.06 -11.2,11.32 0.03,5.63 11.35,16.83 0.06,11.26 -22.4,22.64 -17.04,-28.06 16.77,-22.61 -5.75,-22.49 16.71,-33.86 c -18.82,-9.29 -28.28,-24.25 -28.39,-44.89 l 33.78,-0.18 c 0.06,12.2 9.5,23.41 28.32,33.63 l 11.26,-0.06 c -0.12,-22.52 7.33,-33.82 22.34,-33.9 -11.33,-14.01 -17.03,-27.12 -17.1,-39.32 l -0.09,-16.89 5.66,5.6 16.89,-0.09 -0.03,-5.63 -5.84,-39.37 16.71,-33.87 -11.32,-11.2 5.6,-5.66 -0.09,-16.89 -16.89,0.09 -0.03,-5.63 16.77,-22.61 -0.03,-5.63 -5.66,-5.6 -0.03,-5.63 16.86,-5.72 -0.06,-11.26 -22.64,-22.39 -5.6,5.66 -5.63,0.03 -28.17,-5.48 -5.48,28.17 -16.89,0.09 -0.03,-5.63 11.26,-0.06 -0.03,-5.63 c -0.07,-13.13 -5.76,-24.36 -17.07,-33.68 l -39.29,22.73 c -7.51,0.04 -11.29,-5.57 -11.35,-16.83 l -5.66,-5.6 -5.63,0.03 -11.2,11.32 0.12,22.51 5.66,5.6 0.03,5.63 -5.63,0.03 5.66,5.6 0.03,5.63 -11.08,33.84 11.44,33.72 -5.45,33.81 0.03,5.63 16.92,5.54 -16.62,50.75 5.78,28.12 33.72,-11.44 0.03,5.63 -39.23,33.99 -5.3,61.95 5.72,16.86 -5.48,28.18 5.96,61.9 -5.51,22.55 5.66,5.6 0.03,5.63 -5.42,39.43 5.78,28.12 -5.33,73.17 0.06,11.26 c 1.92,7.49 11.34,14.95 28.27,22.37 z m 641.75,-4.24 16.89,-0.09 -0.06,-11.26 -16.89,0.09 z m 38.96,-84.66 -0.06,-11.25 11.19,-11.32 5.63,-0.03 0.12,22.51 z m 201.85,-174.73 -5.72,-16.85 -16.89,0.09 0.06,11.25 z m 39.11,-56.5 22.52,-0.12 56.18,-22.82 c 26.27,-0.14 39.38,-3.96 39.34,-11.47 l -0.06,-11.26 -11.32,-11.2 10.99,-50.72 -16.89,0.09 -16.82,11.34 -22.52,0.12 -0.06,-11.25 -5.66,-5.6 5.6,-5.66 c 18.73,-6.67 28.06,-16.1 28,-28.3 l 28.29,28 27.97,-33.93 -5.78,-28.12 -16.89,0.09 0.06,11.26 -5.63,0.03 c -8.49,-9.34 -27.31,-18.62 -56.44,-27.85 l -5.66,-5.6 c -14.02,11.34 -27.12,17.04 -39.32,17.1 l -16.89,0.09 0.09,16.89 c 16.89,-0.09 30.1,12.97 39.62,39.2 l 0.15,28.14 c 0.03,6.57 -16.83,12.29 -50.58,17.16 l 5.66,5.6 0.24,45.04 -5.6,5.66 z m -816.33,-1.28 11.26,-0.06 -0.09,-16.89 -11.26,0.06 z m 545.99,-19.8 -0.09,-16.89 16.89,-0.09 z m 585.48,-3.12 5.6,-5.66 -0.09,-16.89 -16.89,0.09 0.06,11.26 z m 45.04,-0.24 28.09,-11.41 -0.06,-11.26 -11.32,-11.2 -5.63,0.03 c -7.51,0.04 -13.08,11.33 -16.71,33.87 z m 213.86,-12.4 -5.78,-28.12 10.96,-56.35 -11.26,0.06 c -8.44,0.04 -13.93,26.34 -16.46,78.9 l 5.65,5.6 z m -551.76,-8.32 -0.06,-11.26 11.2,-11.32 5.63,-0.03 11.32,11.2 z m 253.03,-57.64 5.63,-0.03 11.2,-11.32 -0.03,-5.63 z m -1013.48,-22.76 5.42,-39.43 5.63,-0.03 16.13,11.2 0.15,28.14 -16.01,11.32 z m -129.57,-16.2 5.6,-5.66 16.92,5.54 -11.2,11.32 z m 1171.05,10.66 11.11,-28.21 22.52,-0.12 5.66,5.6 c 22.49,-4.81 33.71,-12.38 33.66,-22.7 l -33.78,0.18 c -0.06,-11.26 -3.84,-16.87 -11.35,-16.83 l -33.78,0.18 -22.31,39.53 0.09,16.89 z m -1216.3,-49.82 -0.06,-11.26 c -0.05,-9.39 20.54,-18.88 61.78,-28.48 l -0.03,-5.63 16.88,-0.09 0.06,11.26 5.63,-0.03 c -11.17,15.07 -16.71,31.99 -16.61,50.76 l -33.72,11.44 z m 1137.34,22.09 5.63,-0.03 -0.06,-11.26 -11.32,-11.2 -16.89,0.09 -11.2,11.32 z m 67.52,-5.99 -0.06,-11.26 5.63,-0.03 11.32,11.2 z m 253.37,4.28 16.88,-0.09 -0.03,-5.63 -11.31,-11.2 -5.63,0.03 z m 39.37,-5.84 11.26,-0.06 5.45,-33.81 -5.66,-5.6 5.6,-5.66 -5.66,-5.6 -5.63,0.03 -5.48,28.18 z m -1328.89,-49.22 -0.06,-11.26 16.89,-0.09 0.06,11.26 z m 754.37,-4.02 5.63,-0.03 22.4,-22.64 -16.89,0.09 -11.2,11.32 z m -270.43,-37.97 -0.12,-22.51 16.89,-0.09 11.32,11.19 -11.2,11.32 z m 309.66,3.98 5.63,-0.03 16.86,-5.72 c -0.11,-19.7 -5.8,-30.93 -17.07,-33.68 l -5.63,0.03 z m -901.43,-124.68 5.6,-5.66 5.63,-0.03 16.97,16.8 -5.59,5.66 z m 78.9,16.47 -11.41,-28.09 10.99,-50.73 -0.3,-56.29 -5.78,-28.12 28.09,-11.41 0.18,33.78 -5.6,5.66 5.66,5.6 0.03,5.63 -10.96,56.35 5.66,5.6 5.63,-0.03 5.6,-5.66 c 15.04,5.55 22.58,11.14 22.61,16.77 l -10.99,50.73 z m -136.01,-168.17 5.54,-16.92 22.52,-0.12 -16.77,22.61 -5.66,-5.6 z m 50.55,-22.79 5.54,-16.92 c -8.49,-7.46 -21.64,-11.14 -39.47,-11.05 l -0.09,-16.89 11.17,-16.95 c 10.32,-0.05 29.19,18.62 56.6,56 l 0.09,16.89 -22.52,0.12 z m 101.36,5.09 -5.72,-16.86 c 6.33,-45.07 13.72,-67.63 22.16,-67.67 -2.51,56.31 -7.99,84.49 -16.44,84.53 z m 1334.02,-46.51 11.25,-0.06 c 22.52,-0.12 33.75,-5.81 33.69,-17.07 l -0.06,-11.26 -22.55,-5.51 c -14.98,5.71 -22.45,11.38 -22.42,17.01 z m -95.74,-5.12 16.86,-5.72 5.66,5.6 c 41.26,-3.97 61.88,-9.71 61.84,-17.22 l -5.66,-5.6 -5.63,0.03 0.03,5.63 -5.66,-5.6 -39.38,5.84 c -17.83,0.09 -36.62,-5.44 -56.39,-16.59 l -28.11,5.78 0.06,11.26 c 0.04,8.44 18.84,13.97 56.38,16.59 z m -84.5,-10.81 11.26,-0.06 c -0.1,-18.77 11.11,-28.21 33.62,-28.33 l -16.97,-16.8 -0.03,-5.63 c 10.17,-27.26 21.33,-46.09 33.47,-56.47 -0.04,-7.51 -13.2,-13.07 -39.49,-16.68 -0.07,-12.2 -17.04,-27.12 -50.91,-44.77 l -22.49,5.75 c -0.06,-12.2 -24.52,-23.33 -73.36,-33.39 l 0.12,22.52 c 3.81,11.24 15.1,16.81 33.86,16.71 l 16.89,-0.09 c 0.08,15.01 3.88,22.5 11.38,22.46 l 33.72,-11.44 5.66,5.6 c 22.56,7.38 33.89,20.46 33.99,39.23 l 0.03,5.62 -39.41,0.21 c -7.51,0.04 -13.06,15.09 -16.65,45.13 l -11.2,11.32 0.03,5.63 5.63,-0.03 16.83,-11.35 c 0.09,16.89 11.43,31.84 34.02,44.86 z m -540.66,-36.53 -0.03,-5.63 11.32,11.2 0.03,5.63 z m 619.35,13.59 11.26,-0.06 11.2,-11.32 -11.32,-11.2 -11.2,11.32 z m -1306.19,-15.56 -0.06,-11.26 11.26,-0.06 11.31,11.2 -11.19,11.32 z m 84.44,-0.45 -0.09,-16.89 5.6,-5.66 -5.66,-5.6 -0.12,-22.52 11.17,-16.95 -0.15,-28.15 11.26,-0.06 c -4.35,63.83 -11.69,95.77 -22.01,95.83 z m -140.89,-27.4 22.31,-39.53 c -18.79,-4.59 -28.2,-10.17 -28.24,-16.74 l 22.46,-11.38 c 15.02,1.8 22.61,16.77 22.76,44.92 l 0.06,11.26 -11.08,33.84 z m 1384.65,-52.41 16.89,-0.09 -0.03,-5.63 -11.32,-11.2 -5.6,5.66 z m -1396.36,-31.98 -0.09,-16.88 11.26,-0.06 0.09,16.88 z m 1148.33,-28.63 5.6,-5.66 -0.06,-11.26 c -18.87,-18.66 -48.94,-27.89 -90.23,-27.67 l -67.43,22.88 0.03,5.63 11.32,11.2 c 12.19,-0.07 25.3,-5.77 39.31,-17.1 l 22.52,-0.12 0.09,16.89 39.41,-0.21 z m -1041.79,-50.75 -0.03,-5.63 11.2,-11.32 16.92,5.54 0.09,16.89 z m -50.81,-27.88 39.35,-11.47 0.03,5.63 5.65,5.6 c -5.55,15.04 -11.13,22.58 -16.76,22.61 z m 923.23,-10.55 22.52,-0.12 11.2,-11.31 -0.03,-5.63 -39.44,-5.42 -5.6,5.66 0.03,5.63 z m -873.11,-91.05 -0.09,-16.891 16.89,-0.09 0.09,16.891 z m 895.15,0.859 16.86,-5.719 -0.06,-11.261 -28.15,0.152 0.06,11.258 11.26,-0.059 z m -422.35,-20.269 -0.03,-5.629 c 53.57,-160.731 86.9,-245.36 99.99,-253.871 l 0.03,5.628 -27.64,95.852 -50.01,124.121 c 0.11,19.707 -5.46,31 -16.71,33.867 z m 393.87,-41.508 28.15,-0.153 -0.03,-5.621 -11.32,-11.199 c 0.04,7.5 -5.57,11.289 -16.83,11.34 z m -867.59,-113.602 5.53,-16.922 16.89,-0.09 0.12,22.524 -11.26,0.058 -5.66,-5.601 z m 50.6,-11.531 -0.06,-11.258 c 11.26,-0.062 22.48,-7.633 33.66,-22.699 l 10.53,16.859 -11.11,28.207 -21.7,0.09 z m 985.25,6.012 28.15,-0.153 -0.06,-11.258 -39.44,-5.421 0.03,5.632 z m 39.17,-45.243 11.26,-0.058 -0.03,-5.629 -16.98,-16.801 -11.26,0.059 -11.2,11.32 0.03,5.633 z m -135.18,-10.539 5.63,-0.031 c 8.45,-0.047 14.03,-9.457 16.74,-28.238 l -39.49,-16.68 c -11.22,7.57 -26.22,11.399 -44.98,11.5 l 0.09,16.891 z m -906.46,-12.07 11.14,-22.57 -5.63,0.031 -28.12,5.781 -0.18,-33.781 11.2,-11.32 11.26,-0.059 c 0.07,13.129 9.55,29.969 28.42,50.508 l 0.03,5.633 -5.6,5.66 0.03,5.629 z m -84.5,-10.809 5.54,-16.91 11.32,11.192 0.03,5.629 z m 855.58,-27.07 5.6,-5.66 -0.03,-5.629 -16.98,-16.801 -11.25,0.059 c 7.59,16.851 15.15,26.191 22.66,28.031 z m -839.02,-34.941 -0.03,-5.629 11.2,-11.32 16.92,5.539 0.06,11.261 -11.26,0.059 0.03,5.633 z m 78.84,5.211 -0.06,-11.258 11.2,-11.32 5.63,-0.032 0.12,22.52 z m 140.41,-62.68 16.89,-0.09 c 5.63,-0.031 11.3,7.449 17.01,22.43 l -5.63,0.031 z m -118.19,6.262 -17.01,-22.434 -0.03,-5.629 28.18,5.481 0.06,11.261 z m 422.04,-36.024 -0.03,-5.629 11.26,-0.058 0.09,16.89 z m -410.99,-3.449 11.2,-11.309 5.63,-0.031 0.06,11.25 z m 112.5,-17.48 -28.14,0.152 c -0.16,-30.031 12.85,-52.621 39.04,-67.77 l 5.63,-0.031 11.32,11.199 0.03,5.629 33.72,-11.437 c -0.9,6.57 -19.61,17.929 -56.12,34.078 l 0.06,11.262 11.35,16.828 0.06,11.261 z m 129.49,-0.688 -0.03,-5.633 22.51,-0.117 11.32,11.199 0.03,5.629 -22.52,0.121 z m -225.31,-21.32 -0.03,-5.629 5.6,-5.66 -5.66,-5.602 -0.06,-11.262 c -0.04,-8.449 9.31,-14.117 28.06,-17.039 0.03,6.571 11.33,14.012 33.9,22.34 l 0.03,5.629 -16.86,5.723 -5.66,-5.602 -5.6,5.66 0.03,5.629 16.92,5.543 0.09,16.891 c -15.08,-11.184 -31.99,-16.723 -50.76,-16.621 z m 140.77,4.879 16.8,-16.981 c 15.03,3.672 22.59,13.012 22.67,28.031 l -16.89,0.09 -22.58,-11.14"
         style="fill:#ffffff;fill-opacity:1;fill-rule:nonzero;stroke:none"
         id="path38" />
      <path
         d="m 2792.59,2298.98 c 7.5,-0.04 11.2,-11.32 11.08,-33.84 l 16.8,-16.98 -0.09,-16.88 -61.6,62.25 5.66,5.6 z m -398.81,-16.5 -16.98,-16.8 -11.26,0.06 0.06,11.26 z m 855.89,36.34 11.26,-0.06 -0.09,-16.89 c -10.32,0.05 -21.61,-5.51 -33.86,-16.71 l -5.6,5.66 0.03,5.63 z m -991.07,-46.88 11.11,-28.21 -22.43,17.01 z m 304.01,13.53 -11.32,-11.19 -5.63,0.03 -5.6,5.66 5.75,22.48 z m 681.2,-11.66 11.19,-11.32 -0.03,-5.63 -22.54,-5.51 0.06,11.26 z m -726.32,-4.98 5.62,-0.03 -0.09,-16.89 -16.88,0.09 0.03,5.63 z m 942.53,-8.4 16.86,-5.72 16.92,5.54 11.2,-11.32 5.63,-0.03 5.66,5.6 5.63,-0.03 16.77,-22.6 -0.03,-5.63 -78.7,22.93 z m -356.63,84.47 16.8,-16.98 22.52,-0.12 39.43,5.42 5.6,-5.66 -0.09,-16.89 -33.74,5.81 -16.92,-5.54 -0.06,-11.26 16.8,-16.98 16.94,11.17 5.63,-0.03 c -0.06,-12.2 -5.76,-25.3 -17.09,-39.32 l -28.12,5.78 -16.95,-11.17 -16.89,0.09 0.03,5.63 c 0.11,20.64 11.43,31.84 33.96,33.6 l 0.03,5.63 c -21.49,17 -34.55,32.08 -39.17,45.25 l 5.66,5.6 z m 38.81,-112.81 c -0.08,-15.01 22.4,-22.64 67.43,-22.88 l 11.26,-0.06 5.66,5.6 16.86,-5.72 c 105.09,-0.56 157.58,-10.22 157.48,-28.98 l 16.32,-107.06 -11.44,-33.71 22.34,-33.9 -0.09,-16.89 c -15.01,0.08 -22.65,-24.28 -22.91,-73.07 l 11.14,-22.57 -16.98,-16.8 c -0.06,-11.26 9.29,-16.94 28.06,-17.04 -0.24,-44.1 -4.15,-74.11 -11.74,-90.02 5.49,-26.3 16.68,-39.49 33.57,-39.58 l -0.06,-11.26 -28.15,0.15 c -7.51,0.04 -13.21,-13.07 -17.1,-39.32 11.1,-30.09 27.91,-45.19 50.43,-45.31 l -0.06,-11.26 c -0.06,-10.32 -16.99,-19.61 -50.82,-27.88 l -0.15,-28.14 5.51,-22.55 -5.66,-5.6 -0.03,-5.63 5.48,-28.18 -5.84,-39.38 5.33,-56.32 -5.99,-67.53 5.27,-67.58 -5.84,-39.38 5.6,-5.66 -0.03,-5.63 -5.72,-16.86 5.45,-33.81 -5.87,-45.01 5.6,-5.65 -0.03,-5.63 -5.66,-5.6 5.18,-84.48 -0.15,-28.148 -5.96,-61.891 11.11,-28.211 -5.72,-16.859 -0.06,-11.262 5.63,-0.027 -11.91,-123.793 5.41,-39.438 -5.77,-28.121 5.39,-45.058 -5.75,-22.493 5.3,-61.961 -0.63,-118.218 c -0.1,-18.77 -7.67,-29.989 -22.7,-33.66 l -16.86,5.718 -84.48,-5.179 -101.33,0.543 -22.49,5.75 -28.21,-11.114 c -10.32,0.063 -27.02,35.801 -50.09,107.231 l -199.37,620.341 c 7.55,8.41 11.37,21.52 11.47,39.35 l 11.26,-0.06 0.03,5.63 -5.63,0.03 -16.92,-5.54 0.03,5.63 -22.37,28.27 0.06,11.26 5.72,16.86 -5.63,0.03 c -14.08,0.07 -28.87,41.44 -44.38,124.09 l 11.32,11.2 0.03,5.63 c -21.58,0.11 -40.89,50.91 -67.56,152.39 l -16.89,0.09 -0.03,-5.63 5.42,-39.44 -5.84,-39.38 5.63,-0.03 -5.72,-16.86 5.39,-45.06 -5.9,-50.64 5.63,-0.03 -5.66,-5.6 -0.03,-5.63 5.33,-56.33 -5.84,-39.37 5.63,-0.03 -11.35,-16.83 10.78,-90.14 -5.9,-50.63 11.11,-28.21 -6.14,-95.682 -0.75,-140.738 4.67,-180.172 -6.02,-73.16 5.54,-16.918 -5.81,-33.75 5.27,-67.582 c -3.83,-14.988 -15.13,-22.437 -33.9,-22.34 l -16.07,0.063 -56.26,5.929 -33.81,-5.449 -50.64,5.899 -82.84,-5.239 c -7.42,15.047 -11.07,35.707 -10.93,61.981 l 0.18,33.777 5.84,39.379 -5.36,50.703 0.6,112.59 5.75,22.488 -11.11,28.211 11.44,33.711 -5.48,28.18 5.66,5.598 -5.42,39.441 0.09,16.891 5.81,33.75 -11.08,33.828 11.56,56.241 -11.02,45.1 11.41,28.09 -11.11,28.2 5.78,28.12 -5.18,84.48 1.92,360.29 -5.6,5.66 5.66,5.6 0.27,50.67 -5.45,33.81 5.78,28.11 -5.51,22.55 5.75,22.49 -5.48,28.18 5.63,-0.03 -5.6,5.66 5.78,28.12 0.6,112.59 -5.6,5.66 11.35,16.83 -10.84,78.87 11.77,112.49 -11.17,16.95 11.41,28.08 -5.45,33.81 5.63,-0.03 50.72,10.99 246.07,-1.26 c 6.57,-0.03 34.29,-97.71 83.16,-259.36 l -22.76,-44.92 16.83,-11.35 16.92,5.54 -0.03,-5.63 c 17.49,-62.96 45.14,-156.93 82.94,-281.93 l 60.85,-203 -5.66,-5.6 -5.63,0.03 -5.54,16.92 -11.26,0.06 -0.09,-16.89 c 33.72,-10.5 50.52,-27.48 50.4,-50.93 l 16.59,-56.39 -5.66,-5.6 -0.03,-5.63 c 44.43,-112.83 66.53,-191.76 66.29,-236.8 l -0.15,-28.15 c 18.77,-0.1 28.3,28 28.6,84.29 l 0.09,16.89 -5.6,5.66 5.66,5.6 -5.18,84.48 0.66,123.85 5.75,22.49 -5.51,22.55 6.44,151.97 -5.54,16.92 5.78,28.11 -5.15,90.11 11.41,28.09 -5.54,16.91 5.66,5.6 22.46,-11.37 5.66,5.6 -5.6,5.65 0.03,5.63 11.38,22.46 c -11.26,0.06 -20.55,18.88 -27.85,56.45 l 11.26,-0.06 0.06,11.26 -16.95,-11.17 c -29.9,24.55 -44.76,52.78 -44.59,84.68 22.52,-0.12 33.9,22.34 34.14,67.38 l 0.12,22.52 -5.6,5.66 5.66,5.6 -5.27,67.58 0.09,16.89 -22.49,5.75 c 3.83,14.99 11.38,22.46 22.64,22.4 l 0.21,39.41 -11.17,16.95 11.38,22.45 -5.48,28.18 z m -810.73,-6.94 16.89,-0.09 c -0.08,-15.01 9.26,-22.57 28.03,-22.67 l -0.12,-22.52 -11.26,0.06 c -22.45,13.26 -33.63,28.33 -33.54,45.22 z m 246.23,-277.17 -0.03,-5.63 33.63,-28.33 17.04,28.06 -11.2,11.32 z m 89.96,-23 -0.03,-5.63 22.52,-0.12 0.03,5.63 -11.2,11.32 z m 129.54,10.57 -5.66,-5.6 -0.06,-11.26 22.49,-5.75 5.66,5.6 0.06,11.26 z m 500.92,-25.19 -0.09,-16.89 28.15,-0.14 5.72,16.85 z m -631.33,-148.64 5.54,-16.92 16.89,-0.09 0.06,11.26 -11.2,11.32 -5.66,-5.6 z m 1018.99,0.2 16.89,-0.09 5.6,-5.65 5.66,5.59 5.63,-0.03 c 22.48,-7.62 33.7,-15.19 33.66,-22.69 l -50.73,-10.99 -5.6,5.66 -22.52,0.12 -5.66,-5.6 -5.62,0.03 0.03,5.63 z m 90.02,-11.73 c 33.76,-3.94 50.61,-9.66 50.57,-17.16 l -11.31,-11.2 -61.87,11.59 5.66,5.6 16.92,5.54 z m -208.36,-10.15 28.12,-5.78 -0.06,-11.26 -45.04,0.24 -0.06,-11.26 -16.89,0.09 0.03,5.63 c 0.04,7.5 11.33,13.07 33.87,16.71 z m -95.82,-22.01 5.63,-0.03 c 22.52,-0.12 33.74,-5.81 33.68,-17.07 l -11.25,0.06 -28.12,5.78 z m -704.19,-86.33 -0.03,-5.63 11.2,-11.32 5.66,5.6 0.06,11.26 z m -95.91,-38.9 -0.03,-5.63 39.41,-0.21 0.12,22.52 -22.52,0.12 z m 219.59,4.46 -5.78,-28.12 c 18.76,-1.03 28.12,-4.84 28.08,-11.4 18.8,6.46 28.25,17.67 28.33,33.62 l -5.63,0.03 -22.55,-5.51 -11.2,11.32 z m -197.28,-43.99 -0.09,-16.88 21.7,-0.09 -4.72,16.89 z m 236.05,-74.44 5.6,-5.66 -0.03,-5.63 5.66,5.6 11.26,-0.06 16.83,-11.35 5.63,-0.03 0.09,16.89 c -15.01,0.08 -22.5,3.87 -22.46,11.38 l -11.26,0.06 z m -448.73,2.34 -5.66,-5.6 -0.03,-5.63 5.6,-5.66 5.63,-0.03 5.66,5.6 0.03,5.63 -5.6,5.66 z m 436.84,-120.5 -0.09,-16.89 11.26,-0.06 11.32,11.2 0.09,16.89 -11.26,0.06 z m -62.01,-16.56 -0.09,-16.89 5.63,-0.03 11.32,11.2 -5.6,5.66 z m 61.53,-73.52 -0.06,-11.26 c 15.02,-0.08 22.48,-7.62 22.4,-22.63 l 16.89,-0.09 0.03,5.63 c -7.41,16.92 -14.87,26.35 -22.37,28.26 z m 708.8,-105.11 5.63,-0.03 -0.21,-39.4 11.17,-16.95 -0.03,-5.63 c -27.21,0.14 -42.19,5.85 -44.95,17.13 0.11,20.64 9.57,35.6 28.39,44.88 z m 241.59,-91.36 11.26,-0.06 -0.09,-16.89 -11.26,0.06 z m -765.99,-63.48 -0.03,-5.63 5.54,-16.92 -5.78,-28.121 -0.45,-84.438 5.66,5.598 5.72,16.859 5.63,-0.027 -5.42,39.437 0.06,11.262 5.81,33.738 c -4.59,18.792 -10.17,28.212 -16.74,28.242 z m -0.9,-168.89 -5.72,-16.859 5.51,-22.551 -5.75,-22.481 11.26,-0.058 5.93,56.258 -5.6,5.66 z m -12.24,-185.719 -0.18,-33.769 11.31,11.199 0.18,33.769 z m -6.08,-84.41 -0.27,-50.672 11.2,-11.32 5.63,-0.027 5.83,39.378 0.03,5.629 -16.79,16.981 z m 27.63,-95.851 -0.09,-16.891 5.63,-0.027 11.32,11.199 -5.54,16.91 -11.32,-11.191"
         style="fill:#ffffff;fill-opacity:1;fill-rule:nonzero;stroke:none"
         id="path40" />
      <path
         d="m 5487.22,355.32 16.88,-0.09 5.48,-28.179 -16.88,0.09 z m -180.09,12.219 22.49,-5.75 -0.03,-5.629 c -0.04,-7.512 -26.36,-14.871 -78.94,-22.101 l 0.03,5.632 c 0.05,8.438 18.86,17.731 56.45,27.848 z m 213.89,-6.769 11.2,-11.321 -5.66,-5.597 -0.03,-5.633 -16.86,5.722 0.03,5.629 z m 33.72,-11.442 16.89,-0.09 -11.32,-11.199 -5.63,0.031 z m -151.85,28.961 22.49,-5.75 -0.06,-11.258 -11.32,-11.203 c -18.74,4.793 -28.09,10.473 -28.06,17.043 l 0.03,5.629 z m -1384.63,866.761 11.25,-0.06 c -32.97,-25.16 -54.79,-47.58 -55.83,-67.28 l 22.52,-0.12 c 0.13,26.27 16.28,39.35 38.79,39.23 l 16.89,-0.09 5.54,-16.92 -5.78,-28.12 5.51,-22.55 c -5.73,-18.74 -18.91,-28.05 -39.55,-27.94 l -44.22,0.21 -67.47,17.25 -0.15,-28.15 -78.87,-10.84 -0.06,-11.26 78.75,-11.68 0.03,5.63 22.46,-11.38 c 0.12,23.46 44.43,40.14 123.3,50.04 l 5.45,-33.81 -16.92,-5.54 -0.09,-16.89 c 10.33,-0.05 15.92,-5.71 16.8,-16.97 l 5,-118.259 -5.87,-45 4.97,-123.891 -0.36,-67.551 -11.35,-16.828 5.42,-39.441 -16.97,-16.801 c 15,-1.949 22.47,-7.617 22.42,-17.008 l -0.18,-33.769 -5.86,-45.012 5.38,-45.07 -5.77,-28.121 5.59,-5.661 -0.03,-5.617 -5.8,-33.75 -33.78,0.18 -27.36,-5.512 -5.6,5.66 -5.63,0.032 -78.85,-5.211 -45,5.871 -0.03,-5.629 -5.6,5.656 -39.44,-5.418 -16.89,0.09 c -7.51,0.039 -11.16,18.82 -10.96,56.352 l -5.63,0.027 5.66,5.601 0.33,61.93 -5.45,33.809 c 0.24,45.031 13.5,67.48 39.77,67.34 l 22.49,-5.75 5.66,5.601 0.06,11.262 -5.63,0.027 -50.7,-5.359 -11.17,16.949 1.26,236.449 5.9,50.633 -5.42,39.438 0.03,5.632 11.47,39.349 -11.2,11.32 0.03,5.63 11.44,33.71 -5.63,0.03 5.66,5.6 0.06,11.26 -11.17,16.95 0.24,45.04 39.44,5.42 5.63,-0.03 -0.03,-5.63 -22.67,-28.03 -0.03,-5.63 56.29,-0.3 0.03,5.63 -5.48,28.18 16.92,5.54 16.86,-5.72 5.66,5.6 0.03,5.63 -5.45,33.81 0.03,5.63 16.89,-0.09 z m 927.89,-552.511 103.73,-0.551 22.43,-17.008 33.87,16.711 22.49,-5.75 22.55,5.508 16.86,-5.719 22.55,5.508 11.25,-0.058 -0.03,-5.629 67.59,5.269 84.44,-0.449 c 2.68,-26.293 6.36,-39.441 11.05,-39.473 l -5.78,-28.117 -0.21,-39.402 -5.65,-5.598 5.59,-5.66 -0.12,-22.519 -11.31,-11.204 c -7.51,0.043 -11.21,9.442 -11.11,28.211 l -16.89,0.09 -0.12,-22.519 -134.87,45.75 -0.06,-11.25 c 25.92,-7.168 51.26,-12.489 62.21,-21.45 8.05,-6.582 5.14,-16.402 5.1,-23.949 l -33.84,-11.082 c 4.46,-6.769 19.73,-5.437 24.1,-29.687 1.06,-5.903 -5.25,-20.473 -6.02,-30.25 -0.4,-5.114 20.09,-10.114 20.36,-14.864 0.37,-6.468 8.75,-19.207 3.87,-25.359 -3.55,-4.469 -20.9,-2.379 -20.36,-6.918 l -5.66,-5.601 -16.86,5.718 -28.17,-5.476 -22.49,5.75 -33.81,-5.453 -22.49,5.75 -41.12,-5.418 c -15.8,-1.231 24.1,10.98 8.36,20.828 -6.7,4.191 -6.53,1.152 -13.22,7.351 -1.75,-6.148 -9.24,-11.582 -6.34,-15.449 7.24,-9.68 -36.23,-11.281 -42.79,-12.441 l -36.84,-3.34 6.85,33.058 -23.32,43.75 -16.91,46.543 21.58,16.77 c -12.84,7.277 -26.72,2.93 -30.91,14.238 -5.86,15.84 1.32,48.891 4.51,68.942 l 0.18,33.781 z m -362.73,1055.051 -38.84,-4.36 -39.26,28.36 -5.63,0.03 c -41.34,-11.04 -62.07,-27.82 -62.19,-50.34 l -28.18,-5.48 -22.46,11.38 c 7.6,18.72 18.91,28.05 33.93,27.97 l 5.78,28.12 -5.45,33.8 39.55,27.94 0.18,33.78 -16.86,5.72 -5.66,-5.6 -5.62,0.03 -39.29,22.73 -33.84,-11.08 -39.35,11.47 -28.21,-11.11 -50.63,5.9 -28.18,-5.48 c 0.09,17.82 -2.89,27.27 -66.69,28.55 -63.79,1.28 -90.93,-7.93 -91.04,-27.64 l -0.06,-11.26 5.63,-0.03 -5.93,-56.26 -0.3,-56.3 -5.66,-5.6 5.54,-16.92 4.49,-213.96 5.63,-0.03 -5.66,-5.59 -0.18,-33.78 5.54,-16.92 -5.78,-28.12 -0.24,-45.04 5.6,-5.66 c -5.01,-60.02 -14.55,-90 -28.63,-89.92 l -0.09,-16.89 c 15.01,-1.96 22.48,-7.63 22.43,-17.01 l -0.09,-16.89 -11.32,-11.2 -11.26,0.06 -16.56,62.02 -16.07,0.06 -62.04,-22.19 -0.03,-5.63 c 14.01,-11.33 27.12,-17.03 39.32,-17.1 l -0.03,-5.63 c -4.74,-7.48 -46.09,-20.39 -124.07,-38.75 l 0.03,5.63 -45.18,-27.9 -22.52,0.12 0.03,5.63 17.01,22.42 c -18.74,4.8 -28.1,10.47 -28.06,17.04 l 0.15,28.15 5.78,28.12 c 16.89,-0.09 33.75,-5.81 50.58,-17.16 l 33.8,5.45 16.8,-16.98 11.26,-0.06 11.32,11.2 c -26.13,26.41 -54.21,39.7 -84.23,39.86 l -33.84,-11.08 -11.17,16.95 0.36,67.55 6.08,84.42 -5.48,28.18 5.99,67.52 -5.63,0.03 5.72,16.86 -5.48,28.18 5.78,28.12 -5.48,28.17 5.78,28.12 -5.27,67.59 c -2.62,37.54 8.74,56.25 34.07,56.12 l 0.12,22.51 c -15.01,0.08 -28.02,22.67 -39.04,67.77 l 5.72,16.86 -5.6,5.66 -16.89,0.09 -16.95,-11.17 c -33.78,0.18 -50.61,11.53 -50.49,34.05 l 22.61,16.77 -11.2,11.31 0.03,5.63 c 0.16,29.09 11.51,45.92 34.05,50.49 l -5.6,5.66 0.06,11.26 c 0.04,7.51 7.57,11.22 22.58,11.14 l 17.16,50.58 -5.63,0.03 -5.66,-5.6 -16.86,5.72 0.06,11.26 5.66,17.62 0.03,5.63 -5.6,5.66 c -51.87,-48.51 -83.9,-84.77 -96.1,-84.7 l 0.03,5.63 -11.19,11.32 -5.63,0.03 c -0.08,-15.02 -7.63,-22.48 -22.64,-22.4 l -17.01,-22.43 16.8,-16.98 28.15,-0.15 c 1.95,15 7.62,22.48 17,22.43 l 16.89,-0.09 5.48,-28.18 -22.64,-22.4 5.48,-28.18 5.63,-0.03 c 7.51,-0.04 11.3,7.45 11.38,22.46 6.57,-0.03 12.13,-13.2 16.68,-39.49 l -11.26,0.06 -5.6,5.66 -5.63,0.03 -17.1,-39.32 c -22.49,3.87 -33.7,13.31 -33.62,28.33 l -5.63,0.03 5.78,28.11 0.03,5.63 c -22.52,0.12 -33.74,7.69 -33.66,22.7 l 0.06,11.26 -16.89,0.09 -16.98,-16.8 33.69,-17.07 c -0.06,-11.26 -5.72,-16.86 -16.98,-16.8 l -0.03,-5.62 c 15.01,-0.08 22.46,-11.38 22.34,-33.9 -15.99,-7.42 -46.04,-11.02 -90.14,-10.78 l -11.07,33.84 c 7.5,-0.04 11.31,11.2 11.43,33.71 l 39.47,11.05 0.21,39.41 22.64,22.4 16.86,-5.72 c 0.09,17.83 15.22,38.39 45.37,61.69 l -11.2,11.31 c -22.56,-6.44 -33.91,-23.27 -34.05,-50.48 l -5.63,0.03 -11.2,11.32 0.06,11.26 11.35,16.83 -5.6,5.66 5.66,5.59 0.09,28.92 c -52.51,5.91 -78.74,15.43 -78.67,28.57 0.06,10.32 13.23,17.76 39.53,22.31 l 33.72,-11.44 -5.72,-16.86 5.6,-5.66 11.26,-0.06 50.79,22.25 16.85,-5.72 -0.09,-16.89 -28.14,0.15 -0.03,-5.63 11.2,-11.32 45.03,-0.24 c 0.08,15.01 3.88,22.5 11.38,22.46 -0.06,-11.26 5.54,-16.92 16.8,-16.98 l 39.53,22.31 -10.75,95.76 16.89,-0.09 c 3.51,-45.05 10.9,-67.61 22.16,-67.67 l 16.89,-0.09 78.78,-6.05 16.92,5.54 22.4,-22.64 78.9,16.47 33.78,-0.18 118.25,5 55.55,-5.97 33.81,5.45 28.12,-5.78 5.66,5.6 5.62,-0.03 c 33.78,-0.18 50.59,-15.29 50.43,-45.31 6.57,-0.04 12.12,-27.11 16.65,-57.16 18.74,-4.79 28.09,-10.47 28.06,-17.04 -0.03,-5.62 -13.21,-13.06 -39.53,-22.3 l -0.03,-5.63 61.81,-22.85 -5.72,-16.86 c 14.98,-6.65 22.44,-14.19 22.4,-22.64 l 5.63,-0.03 28.17,5.48 5.6,-5.66 -11.37,-22.46 5.59,-5.66 5.63,-0.03 c 0.07,12.2 22.67,27.09 67.8,44.68 l 44.92,-22.76 17.73,5.51 c 4.81,-9.19 9.93,-16.21 15.37,-21.07 l 0.08,13.95 -11.02,45.1 11.35,16.83 -5.54,16.92 5.99,67.52 -5.51,29.77 5.75,22.49 0.03,5.63 -5.6,5.66 0.03,5.63 16.95,11.16 56.29,-0.29 c 15.95,-0.09 39.58,9.19 61.26,27.84 20.56,-15.12 52.42,-22.79 95.58,-23.02 l 16.92,5.53 c 15.05,-3.5 27.34,-7.24 36.88,-11.21 l 80.97,6.29 44.23,-12.38 39.04,9.39 63.42,7.27 45,-5.86 45.07,5.39 11.26,-0.06 67.53,-5.99 16.97,16.79 22.46,-11.37 16.92,5.54 16.77,-22.61 11.38,22.46 33.72,-11.44 28.18,5.48 c 26.27,-0.14 39.35,-9.6 39.25,-28.36 l 11.26,-0.06 16.95,11.17 5.63,-0.03 5.48,-28.18 c -17.83,0.09 -36.63,-26.56 -56.41,-41.46 l 11.13,-22.58 39.44,5.42 11.26,-0.06 28.09,-11.41 -0.06,-11.26 c -1.94,-11.25 -16.98,-16.8 -45.13,-16.65 0.06,11.26 -3.66,16.91 -11.17,16.95 l -0.03,-5.63 11.17,-16.95 -0.09,-16.89 -33.78,0.18 -0.03,-5.63 5.51,-22.55 -11.4,-28.09 c -0.06,-10.32 13.03,-19.77 39.25,-28.35 l -0.09,-16.89 -5.63,0.03 -16.8,16.98 c -6.56,0.03 -21.67,-16.78 -45.3,-50.43 l -33.81,-5.45 -73.13,11.65 -56.32,-5.33 -5.6,5.66 -28.18,-5.48 -50.67,0.27 -33.8,-5.45 -28.12,5.78 -11.32,-11.2 -16.83,11.35 -11.26,0.06 c -16.01,-11.18 -34.81,-16.71 -56.39,-16.59 l 0.03,5.63 -49.46,-18.04 -9.23,14.13 40.29,13.86 -14.35,19.78 c -10.99,0.97 -12.84,-10.91 -20.43,-16.78 -2.03,-1.57 -7.9,4.66 -10.37,2.87 -3.6,-2.62 -8.48,0.48 -12.49,0.07 -6.26,-0.65 -10.91,-2.51 -9.17,8.49 -0.09,-0.29 -0.16,-0.53 -0.22,-0.72 -1.77,-5.69 9.77,28.45 -16.62,-10.45 l -19.58,2.92 3.2,-54.91 c -0.2,-37.53 -4.05,-56.28 -11.56,-56.24 l 5.48,-28.17 -0.21,-39.41 5.6,-5.66 -0.03,-5.63 -4.24,-4.2 16.89,-0.09 22.45,-11.38 16.92,5.54 35.15,-7.22 8.45,-0.05 c -0.01,-0.58 0,-1.14 0.02,-1.69 l 12.62,-2.6 c -1.35,-4.52 -2.95,-8.59 -4.83,-12.2 1.02,-0.3 2.14,-0.45 3.35,-0.46 l 33.84,11.08 -0.03,-5.63 -22.61,-16.77 -5.66,-5.6 -0.03,-5.63 c -6.45,1.76 -12.3,5.5 -17.55,11.21 -6.82,-6.44 -15.51,-9.62 -26.07,-9.57 l -33.81,-5.45 0.03,5.63 11.35,16.83 -16.89,0.09 -11.31,-11.2 -0.03,-5.63 c -8.04,5.42 -17.36,9.99 -27.98,13.71 l 4.01,-20.62 -11.32,-11.2 28,-28.29 5.63,-0.03 c 7.51,-0.04 11.29,5.57 11.35,16.82 l 5.66,5.6 5.63,-0.03 16.8,-16.97 -5.66,-5.6 -0.03,-5.63 -5.6,5.66 -11.26,0.06 -11.32,-11.2 -0.06,-11.26 39.41,-0.21 -0.03,-5.63 c -2.89,-13.12 -14.21,-24.32 -33.96,-33.6 l -5.63,0.03 -11.2,11.32 5.63,-0.03 c -8.32,22.56 -15.77,33.86 -22.34,33.9 l -16.95,-11.17 5.48,-28.18 -0.06,-11.26 -5.9,-50.64 11.11,-28.21 c -9.44,-11.2 -24.48,-16.75 -45.12,-16.64 l -0.03,-5.63 16.62,-50.76 16.32,-32.46 c 4.48,-0.02 6.29,-20.5 -5.22,-25.31 -8.86,-3.69 -33.17,17.67 -36.22,-27.95 -0.81,-12.13 -5.24,-21.25 -3.41,-36.58 l 22.02,36.48 c 0.12,22.52 37.99,6.83 45.49,6.79 l 21.15,-7.15 18.26,6.94 -25.27,15.62 10.04,30.91 c -32.47,-11.98 -16.67,18.1 -12.47,38.07 15.71,-0.08 64.79,4.78 76.03,-4.63 7.27,-6.08 7.13,-23.87 12.53,-33.84 8.71,-16.09 -14.14,-37.08 -10.28,-63.28 l 5.63,-0.03 c 37.53,-0.2 56.37,14.71 56.53,44.73 0.07,13.14 -15.67,24.95 -8.11,35.23 7.56,10.28 38.43,19.03 53.48,26.46 l 11.38,22.46 73.21,5.24 84.36,-17.34 22.55,5.51 c 22.5,-3.87 33.73,-9.56 33.69,-17.07 -0.1,-17.83 -11.44,-32.78 -34.02,-44.86 l -16.83,11.35 -5.63,0.03 -11.32,-11.2 -0.09,-16.89 11.17,-16.94 -0.06,-11.26 c -11.26,0.06 -16.96,-13.05 -17.1,-39.32 -22.52,0.12 -37.66,-24.2 -45.43,-72.95 -9.44,-13.01 16.01,-35.19 8.98,-43.68 -12.67,-15.28 -55.11,-11.77 -59.94,-12.34 l -22.43,17.01 -11.32,-11.2 -5.63,0.03 c -10.88,0.05 -12.65,16.48 -20.64,21.22 -7.58,4.49 -21.52,-2.94 -26.5,5.77 -5.15,9.02 -38.15,14.82 -40.51,28.36 -2.07,11.88 26.18,30.96 26.26,46.31 0.14,26.27 -3.54,39.43 -11.05,39.47 l -28.19,-37.85 c -21.14,-6.68 -33.83,13.09 -38.13,-16.69 -1.06,-7.28 -1.61,-15.26 -1.65,-23.92 l 40.27,-29.77 c -4.01,-3.73 -16.81,-36.5 -20.69,-39.3 -11.66,-8.38 -48.82,-3.96 -59.38,-3.9 -13.13,0.07 -25.85,-1.27 -32.37,7.21 -6.53,8.48 7.16,25.29 7.25,42.18 l -29.45,-2.66 -13.31,14.15 6.05,-43.67 5.54,-16.91 -11.38,-22.46 10.9,-67.62 -5.66,-5.6 -0.03,-5.63 5.51,-22.55 -5.96,-61.891 c 2.69,-22.539 6.38,-33.821 11.08,-33.84 l -5.66,-5.598 -0.03,-5.633 5.48,-28.179 c -2.94,-22.5 -6.75,-33.739 -11.44,-33.719 l 10.81,-84.5 -3.08,-51.699 2.72,-15.86 -5.63,0.028 c 6.44,-5.239 16.76,-10.559 7.63,-15.52 l 9.71,-19.75 22.69,8.32 33.56,-12.847 -6.02,-73.153 5.63,-0.031 -28.51,-67.406 c 44.78,-49.973 67.11,-85.742 66.99,-107.32 -0.03,-6.18 5.62,-19.891 -9.18,-23.961 -30.18,-8.282 -97.08,-3.621 -132.33,-3.442 l -196.17,1.02 -16.83,11.351 -11.26,0.059 -5.66,-5.598 -5.63,0.028 -11.17,16.953 0.09,16.886 5.63,-0.027 28.12,-5.781 0.12,22.519 -16.53,67.653 16.98,16.789 c 0.1,18.769 -11.09,31.969 -33.57,39.59 l 0.03,5.629 c 18.77,-0.098 28.17,3.601 28.21,11.109 l 0.06,11.262 c -14.07,0.078 -8.36,24.437 -16.55,73.281 l 5.66,5.598 0.03,5.628 -5.48,28.172 5.9,50.641 -5.36,50.699 5.66,5.602 0.03,5.629 -5.51,22.539 0.06,11.261 16.89,-0.089 0.06,11.257 -22.49,5.75 5.78,28.121 -5.06,106.99 11.53,50.61 -11.02,45.1 22.7,33.66 0.03,5.63 -16.74,28.23 11.98,135.05 c -7.51,0.04 -13.08,11.33 -16.71,33.87 l 17.31,78.73 -16.86,5.72 0.06,11.26 c 0.04,7.5 5.69,11.23 16.95,11.17 l 5.66,5.6 0.06,11.25 c 0.05,9.39 -14.92,16.97 -44.92,22.76 l 0.06,11.26 c 10.32,-0.05 18.05,41.19 23.18,123.73 l -5.51,22.55 5.72,16.86 c -14.98,5.71 -22.46,11.38 -22.43,17.01 l 17.04,28.06 0.09,16.89 z M 5257.4,544.512 c 67.56,-0.364 101.24,-17.434 101.06,-51.211 l -0.03,-5.629 -5.8,-33.75 5.54,-16.922 c -5.71,-14.98 -11.38,-22.449 -17.01,-22.422 l -45.04,0.242 -5.48,28.168 5.84,39.383 c -4.32,0.02 -9.11,3.328 -14.38,9.93 -1.33,1.668 -2.7,3.558 -4.1,5.648 -2.17,3.262 -23.55,-1.32 -25.87,2.949 -4.37,8.071 10.14,26.293 5.24,37.981 z m -207.73,108.066 -0.06,-11.258 -5.63,0.032 c 3.52,-45.063 10.9,-67.622 22.16,-67.672 l 11.32,11.191 -5.48,28.18 11.32,11.199 -28,28.301 z m -1174.46,7.711 -5.66,-5.598 -0.06,-11.261 5.6,-5.66 c -1.95,-15 -7.62,-22.481 -17,-22.43 l -0.06,-11.262 11.14,-22.566 16.88,-0.09 -11.02,45.09 33.78,-0.184 z m 67.44,-22.879 -11.35,-16.832 5.6,-5.656 -0.03,-5.633 -5.75,-22.48 11.26,-0.059 17.01,22.422 c 33.78,-0.184 55.51,5.359 55.57,16.617 l 0.03,5.633 -16.07,0.058 z m -112.14,85.051 -16.86,5.719 -0.06,-11.258 33.75,-5.813 16.92,5.539 0.08,16.891 z m 940.23,410.139 -0.06,-11.26 c 11.26,-0.06 16.84,-9.47 16.74,-28.24 l 11.26,-0.06 0.15,28.15 z m -864.65,39.84 -0.06,-11.26 5.6,-5.66 -0.03,-5.63 28.18,5.48 c -3.69,11.28 -14.92,16.97 -33.69,17.07 z m 56.3,-0.3 -5.72,-16.86 16.89,-0.09 0.03,5.63 z m -84.33,22.97 5.63,-0.03 -0.06,-11.26 -16.92,-5.54 0.03,5.63 z m 921.13,-6.37 -0.06,-11.25 16.89,-0.09 0.06,11.25 z m 479.48,177.6 c 15.95,-0.08 25.21,-22.65 27.79,-67.7 l -11.32,-11.2 -0.06,-11.26 c -0.04,-7.51 7.44,-11.3 22.46,-11.38 l -11.41,-28.09 -16.89,0.09 c -18.73,7.61 -28.04,20.79 -27.94,39.56 l 0.03,5.63 22.55,5.51 0.03,5.63 -16.8,16.98 -5.66,-5.6 -5.63,0.03 0.06,11.26 c 19.7,-0.11 30.99,5.46 33.87,16.71 0.04,7.5 -5.57,11.29 -16.83,11.35 l -5.6,5.66 0.03,5.63 z m 61.68,-45.36 5.63,-0.03 -0.03,-5.63 -11.35,-16.83 -0.03,-5.63 c -0.04,-7.51 5.57,-11.29 16.83,-11.35 l 5.6,-5.66 -0.03,-5.63 -5.63,0.03 c -15.01,0.08 -22.47,9.5 -22.37,28.27 l -5.63,0.03 z m -679.7,127.45 -0.03,-5.63 38.4,-33.96 -38.61,-5.45 -0.03,-5.63 c 14.92,-16.03 27.16,-31.08 27.09,-45.16 l -0.15,-28.14 22.45,-11.38 28.15,-0.15 22.67,28.02 -16.59,56.39 c -7.5,0.04 -11.22,7.57 -11.14,22.58 l -5.6,5.66 -5.63,0.03 -22.55,-5.51 c 0.1,18.76 -15.92,28.21 -38.43,28.33 z m -50.97,-56.03 10.9,-67.61 11.26,-0.06 11.32,11.19 0.03,5.63 -16.74,28.24 5.75,22.49 -5.6,5.66 -5.63,0.03 -5.66,-5.6 z m -708.14,-17.27 5.54,-16.91 11.26,-0.06 11.32,11.2 0.06,11.25 -16.89,0.09 -5.66,-5.6 z m 1293.07,64.85 -0.03,-5.63 5.42,-39.44 c 26.35,13.94 39.55,27 39.62,39.2 l -5.6,5.66 z m -467.11,30.64 -5.66,-5.6 -0.06,-11.26 16.8,-16.98 11.26,-0.06 0.06,11.26 z m 17.55,123.76 -5.66,-5.6 -0.03,-5.63 c 2.76,-11.28 17.74,-16.98 44.95,-17.13 l 16.65,-45.13 c 22.53,2.7 33.81,6.39 33.84,11.08 0.16,30.97 -12.87,51.68 -39.08,62.14 l -11.26,0.06 -22.55,-5.51 z m -0.3,-56.3 -0.09,-16.89 16.98,16.8 0.03,5.63 z m -881.69,11.78 5.54,-16.92 11.26,-0.06 0.09,16.89 z m 742.07,45.24 -0.06,-11.26 c -0.1,-18.77 7.34,-30.07 22.34,-33.9 l 11.32,11.2 22.51,-0.12 c 7.51,-0.04 16.05,-5.69 15.99,-16.95 l 11.31,11.2 0.09,16.89 c -18.75,2.91 -32.91,8.59 -32.86,17.04 l 0.06,11.26 11.34,16.83 0.06,11.26 -22.51,0.12 z m 117.31,-17.49 -5.66,-5.6 -0.03,-5.63 5.54,-16.92 16.89,-0.09 0.06,11.26 z m 0.57,106.96 -0.03,-5.63 c 3.6,-30.04 9.15,-45.08 16.65,-45.12 l 11.26,-0.06 22.64,22.39 c -22.42,18.89 -39.26,28.36 -50.52,28.42 z m 67.5,-11.62 -0.03,-5.63 11.2,-11.32 5.66,5.6 0.06,11.26 z m 230.84,4.4 5.63,-0.03 11.2,-11.32 -16.89,0.09 z m -549.99,60.64 45.04,-0.24 -0.06,-11.26 33.78,-0.18 -0.03,-5.63 c -0.12,-22.52 -24.58,-33.65 -73.37,-33.39 l -11.2,11.32 11.35,16.83 -5.6,5.66 z m 550.14,-32.49 11.26,-0.06 45.01,-5.87 -0.06,-11.26 -50.67,0.27 z m -253.09,46.39 5.6,-5.66 11.26,-0.06 0.09,16.89 -5.63,0.03 z m -117.32,17.49 -0.09,-16.89 16.89,-0.09 0.03,5.63 -11.2,11.32 z m -167.99,58.62 -0.06,-11.26 c 26.25,-4.83 39.33,-14.28 39.26,-28.35 l 16.89,-0.09 0.09,16.88 c -11.26,0.06 -16.86,5.72 -16.8,16.98 l -22.46,11.38 z m 274.47,2.76 -5.81,-33.74 5.63,-0.03 28.18,5.48 22.49,-5.75 0.03,5.63 c 0.06,11.25 -16.78,20.73 -50.52,28.41 z m -86.92,-24.6 c -0.87,-2.64 -1.7,-5.55 -2.52,-8.73 l 10.44,-0.03 c 0.02,3.12 1.65,5.58 4.89,7.38 z m -828.64,19.68 -0.09,-16.89 16.89,-0.09 0.09,16.89 z m 855.11,-17.68 c 2.89,0.26 6.11,0.37 9.66,0.35 l -4.21,1.43 z m -112.67,132.66 -72.57,5.25 -45.07,-5.38 -0.03,-5.63 c -0.09,-17.83 26.12,-29.23 78.64,-34.2 l 11.32,11.2 0.82,-0.03 -0.03,-5.63 -17.89,-33.66 5.6,-5.66 -0.03,-5.63 -11.32,-11.2 -0.03,-5.63 11.26,-0.06 -0.03,-5.63 c 26.27,-0.14 34.67,14.8 34.83,44.83 l -5.48,28.18 9.91,9.8 z m -244.51,-68.42 16.31,-6.78 -6.07,-17.36 -7.7,-7.16 -16.89,10.26 -11.2,11.32 5.66,5.6 z m -508.8,26.68 c 9.3,-16 22.38,-27.33 39.23,-33.99 26.33,11.12 39.56,27.94 39.68,50.46 -11.26,0.06 -16.86,5.72 -16.8,16.98 l 5.72,16.86 -16.89,0.09 c -24.46,-11.13 -41.43,-27.93 -50.94,-50.4 z m -22.49,5.75 -0.03,-5.63 11.2,-11.32 0.09,16.89 z m 157.9,49.83 -5.8,-33.75 11.25,-0.06 5.81,33.75 z m 410.19,-13.5 11.2,-11.31 11.26,-0.06 0.03,5.63 -5.6,5.65 0.03,5.63 z m 1158.62,54.35 28,-28.29 -16.92,-5.54 -28.12,5.78 z m -1714.97,-0.67 -0.03,-5.63 11.2,-11.31 0.09,16.88 z m 1805.22,33.97 39.38,-5.84 11.26,-0.06 5.54,-16.92 -39.56,-27.93 -11.26,0.06 0.06,11.26 -5.63,0.03 5.66,5.6 0.03,5.62 z M 3775.48,2017.6 c 3.67,-15.03 14.89,-22.6 33.65,-22.7 l 5.63,-0.03 c 0.04,7.51 5.69,11.23 16.95,11.17 l 5.66,5.6 0.03,5.63 -5.6,5.66 -22.55,-5.51 -33.74,5.81 z m 1005.19,-15.74 c 5.35,4.65 11.13,11.35 17.33,20.1 l -5.54,16.92 -5.63,0.03 -9.91,-9.8 z m -122.54,32.08 -0.12,-22.52 21.7,-0.09 0.06,11.26 -16.01,11.32 z m -33.44,62.11 -11.5,-44.98 5.6,-5.66 22.51,-0.12 11.44,33.72 -5.63,0.03 z m 1396.17,15.15 11.26,-0.06 c -0.12,-22.51 -22.73,-39.28 -67.83,-50.3 -14.95,11.34 -39.32,17.1 -73.09,17.28 l -5.6,5.66 0.09,16.88 16.88,-0.09 -0.06,-11.26 c 78.86,7.09 118.31,14.39 118.35,21.89 z m -157.69,-10.42 -0.18,-33.77 -11.26,0.06 -5.51,22.54 z m -130.14,11.91 5.63,-0.03 33.68,-17.07 5.72,16.86 5.63,-0.03 16.8,-16.98 -0.03,-5.63 c -0.08,-15.01 -32.02,-22.35 -95.82,-22.01 l -5.6,5.66 0.03,5.63 z m -95.83,-22.01 11.2,-11.32 -0.03,-5.63 -22.52,0.12 0.03,5.63 z m -641.45,72.56 -0.12,-29.74 9.73,-63.38 11.51,37.45 c 6.49,-3.39 15.87,-5.96 15.87,-5.96 0,0 13.8,6.97 8.55,24.61 l -28.71,18.45 -11.2,18.54 z m -1179.97,35.07 -0.06,-11.26 11.26,-0.06 50.61,-11.53 5.66,5.6 0.03,5.63 c 0.04,7.51 -11.2,11.32 -33.72,11.44 l 0.03,5.63 z m 2036.61,-7.39 11.26,-0.06 -0.09,-16.89 -11.32,-11.2 -5.63,0.03 z m -428.6,15.85 -0.06,-11.26 16.88,-0.09 -11.19,11.32 -5.63,0.03"
         style="fill:#ffffff;fill-opacity:1;fill-rule:nonzero;stroke:none"
         id="path42" />
      <path
         d="m 6087.78,2359.97 c 37.48,-9.58 56.2,-17.19 56.17,-22.82 l -5.66,-5.6 -0.03,11.21 -28.11,-11.06 -16.95,5.67 -39.32,0.26 -22.58,5.7 -5.6,-11.18 -5.63,0.03 c -60.08,-6.25 -90.15,3.25 -90.19,-5.2 l -22.49,5.75 0.03,5.63 118.4,16.31 33.75,-5.81 z m -214.14,-21.43 28.15,-0.15 -0.06,-11.26 -16.89,0.09 z m 543,-82.53 16.89,-0.09 -11.32,-11.2 -5.63,0.03 z m -549,12.15 11.17,-16.94 c -41.45,-30.75 -62.2,-49.4 -62.23,-55.97 11.26,-0.06 16.87,-3.84 16.83,-11.35 -9.38,0.05 -15.05,-7.43 -17.01,-22.43 l -28.21,-11.11 16.74,-45.08 c 11.26,-0.06 16.95,28.01 17.07,50.53 l 5.63,-0.03 c 12.14,-11.32 23.37,-17.01 33.69,-17.07 l -11.44,-50.55 22.34,-33.9 -0.06,-11.26 -11.26,0.06 -5.66,-5.6 -16.8,16.98 -5.63,0.03 c -21.66,-13.96 -32.98,-25.16 -33.96,-33.6 l 5.45,-33.81 22.52,-0.12 0.06,11.26 16.89,-0.09 22.43,-17.01 5.66,5.6 5.6,-5.66 -5.66,-5.6 -0.09,-16.89 16.89,-0.09 16.97,16.8 -16.85,5.72 0.09,16.89 5.78,28.12 -11.2,11.32 0.03,5.63 16.91,5.54 c -1.71,30.03 -9.14,45.09 -22.27,45.16 l 0.12,39.35 c 0.05,10.32 9.46,15.9 28.23,16.74 l 0.09,16.89 -28.14,0.15 0.03,5.63 17.03,28.06 -5.53,16.92 5.62,-0.03 39.5,16.68 22.49,-5.75 5.75,22.49 44.95,-17.13 33.81,5.45 16.79,-16.98 5.63,-0.03 0.06,11.26 -5.6,5.66 0.03,5.63 5.66,5.6 33.78,-0.18 118.07,-28.78 5.66,5.6 56.3,-0.3 28.18,5.48 c -0.06,-11.26 7.41,-16.93 22.43,-17.01 l -0.06,-11.26 c -11.26,0.06 -16.91,-3.66 -16.95,-11.17 24.29,-19.83 37.33,-36.79 39.14,-50.88 l 5.6,-5.66 5.62,-0.03 5.66,5.6 5.6,-5.66 16.89,-0.09 0.06,11.26 c -11.26,0.06 -16.87,3.85 -16.83,11.35 l 0.06,11.26 22.55,5.51 11.2,-11.32 5.63,-0.03 c 18.77,-0.1 28.18,-11.36 28.24,-0.1 l 5.63,-0.03 16.83,-11.35 5.66,5.6 5.63,-0.03 39.32,-17.1 -11.44,-33.71 5.63,-0.03 -11.38,-22.46 11.14,-22.58 -5.72,-16.86 5.63,-0.03 c 7.5,-0.04 11.29,5.57 11.35,16.83 l 16.88,-0.09 11.05,-39.47 -45.03,0.24 16.8,-16.98 5.62,-0.03 5.66,5.6 5.63,-0.03 5.6,-5.66 -0.03,-5.63 -33.98,-39.22 16.8,-16.98 c -7.65,-26.23 -18.98,-39.31 -33.99,-39.23 l -28.21,-11.11 0.03,5.63 -16.92,-5.54 -0.03,-5.63 c 37.42,-20.84 57.97,-37.84 61.66,-51 l -0.03,-5.63 -11.32,-11.2 -5.63,0.03 c 0.06,11.26 -3.67,16.91 -11.17,16.95 l -5.66,-5.6 -0.03,-5.63 5.6,-5.66 5.63,-0.03 c -5.83,-37.5 -13.44,-56.22 -22.82,-56.17 l 5.6,-5.66 -0.09,-16.89 -22.7,-33.66 -11.26,0.06 c -28.15,0.15 -56.2,17.19 -84.17,51.12 l -5.63,0.03 11.05,-39.47 -45.1,-11.02 -106.96,0.57 -16.8,16.98 5.72,16.86 c 0.3,56.29 -14.49,99.54 -44.35,129.72 0.22,41.28 -84.12,62.38 -253,63.28 l -22.55,-5.51 5.33,-56.33 -5.84,-39.38 5.51,-22.55 -5.63,0.03 5.6,-5.66 -0.6,-112.59 -5.66,-5.6 -0.03,-5.63 -73.01,34.17 c -48.8,-2.56 -73.22,-23.02 -73.24,-27.71 l -28.12,5.78 -100.52,17.35 -5.48,28.18 17.07,33.68 0.03,5.63 c -11.26,0.06 -16.87,3.85 -16.83,11.35 l 11.47,39.35 c -7.47,6.61 -12.86,51.68 -16.17,135.2 l 5.99,67.53 -5.6,5.66 0.03,5.63 11.53,50.6 -10.84,95.72 c 9.53,26.22 17.1,39.32 22.73,39.29 l 28.15,-0.15 61.08,-5.93 90.13,10.78 0.06,11.26 -28.12,5.78 11.32,11.19 c 26.25,-3.89 39.36,-9.59 39.32,-17.09 27.24,4.54 46.04,11.95 56.42,22.21 z m 168.32,-107.86 -11.35,-16.83 16.83,-28.19 11.31,28.04 0.06,11.26 z m 388.35,-35.8 c 22.48,-7.62 33.66,-22.69 33.54,-45.21 l -16.89,0.09 -0.03,-5.63 5.6,-5.66 -0.03,-5.63 22.58,11.14 5.6,-5.66 c 7.58,14.97 11.45,35.59 11.59,61.86 l 0.03,5.63 -33.75,5.81 c -18.79,-4.59 -28.2,-10.17 -28.24,-16.74 z m 140.83,16.14 22.52,-0.12 -0.06,-11.26 -11.26,0.06 z m 78.17,-6.37 11.25,-0.06 -0.08,-16.89 -11.2,11.32 z m -100.81,-16.02 5.63,-0.03 11.2,-11.32 -0.06,-11.26 c -0.04,-7.51 -5.69,-11.23 -16.95,-11.17 l -16.86,5.72 0.06,11.26 c 11.26,-0.06 16.92,5.54 16.98,16.8 z m -534.87,-8.42 -0.09,-16.88 16.86,-5.72 5.66,5.6 0.09,16.88 z m 596.06,-14.76 5.63,-0.03 c 20.64,-0.11 35.6,-9.58 44.89,-28.39 l -0.03,-5.63 -17.04,-28.06 22.34,-33.9 -0.06,-11.26 -22.52,0.12 -44.65,73.43 c 7.51,-0.04 11.32,11.2 11.44,33.72 z m -551.26,-30.51 -0.06,-11.26 22.33,-33.9 33.78,-0.18 c 0.06,11.26 7.6,16.85 22.61,16.77 l 11.41,28.09 -11.26,0.06 c -0.05,-10.32 -11.35,-17.77 -33.9,-22.34 l -33.66,22.7 z m 759.29,-21.27 5.62,-0.03 -0.06,-11.26 -11.31,-11.2 -11.26,0.06 0.03,5.63 z m -62.02,-16.56 5.6,-5.66 c -5.71,-14.98 -11.38,-22.46 -17.01,-22.43 l -11.26,0.06 c 7.6,16.85 15.15,26.2 22.67,28.03 z m -697.51,-7.21 c -0.1,-17.83 -3.92,-30.94 -11.47,-39.35 l -0.03,-5.63 22.51,-0.12 11.47,39.35 -5.6,5.66 z m 685.98,-43.39 5.63,-0.03 -0.09,-16.89 -11.32,-11.2 -11.17,16.95 z m -118.43,-38.78 c 22.51,-2 33.74,-7.69 33.69,-17.07 l -0.03,-5.63 -28.21,-11.11 -16.86,5.72 z m -787.65,-17.99 -0.06,-11.26 5.63,-0.03 11.32,11.2 z m -213.59,-88.97 5.6,-5.66 5.63,-0.03 11.32,11.2 0.06,11.26 z m 229.16,-158.83 22.52,-0.12 -0.03,-5.63 c -0.11,-19.7 -5.8,-30.93 -17.07,-33.69 l -5.6,5.66 -5.63,0.03 z m 5.33,-56.32 5.63,-0.03 11.2,-11.32 -5.72,-16.86 -5.63,0.03 -11.2,11.32 z m 675.47,-20.49 -0.03,-5.63 -11.32,-11.2 -5.6,5.66 0.03,5.63 5.66,5.6 z m -242.11,-4.34 11.26,-0.06 39.29,-22.73 c 21.64,11.14 47.94,16.63 78.9,16.47 24.4,-0.13 41.19,-18.99 50.37,-56.57 l -5.75,-22.49 22.49,-5.74 22.55,5.5 11.26,-0.06 c -0.06,-11.25 -16.98,-16.79 -50.76,-16.61 l -11.35,-16.83 -0.03,-5.63 5.6,-5.66 -0.03,-5.63 -5.66,-5.6 22.46,-11.38 -0.03,-5.63 c -27.21,0.14 -46.16,-33.53 -56.84,-101.03 -26.54,-50.53 -62.43,-95.38 -107.68,-134.55 17.33,-93.92 32.09,-140.91 44.29,-140.98 l -5.66,-5.6 -0.03,-5.63 c 3.55,-37.55 9.08,-56.341 16.59,-56.38 l -5.66,-5.602 -0.03,-5.629 49.65,-191.679 55.09,-225.481 -5.66,-5.597 -0.03,-5.633 c 14.87,-28.231 25.94,-63.949 33.21,-107.149 l -11.32,-11.199 5.54,-16.91 -5.66,-5.602 -185.78,0.981 -16.82,11.351 -5.63,0.028 -16.95,-11.168 -28.15,0.148 c -13.14,0.071 -29.75,52.711 -49.83,157.903 l 5.63,-0.032 c -22.19,61.11 -62.65,217.09 -121.36,467.92 l 5.72,16.86 c -7.51,0.04 -11.22,7.57 -11.14,22.58 l -22.46,11.38 -56.33,-5.33 -101.3,6.17 -5.66,-5.6 -0.09,-16.89 5.51,-22.55 -5.84,-39.37 -0.6,-112.599 11.08,-33.84 -17.16,-50.571 5.36,-50.699 -5.84,-39.383 5.3,-61.949 -0.48,-90.078 -6.13,-97.262 5.42,-39.429 c -9.45,-11.211 -24.49,-16.758 -45.13,-16.649 l -0.03,-5.633 -16.86,5.723 -179.33,2.508 c -26.28,-0.801 -39.38,6.781 -39.29,22.73 l 5.84,39.379 -5.39,45.071 6.44,151.972 -5.48,28.168 5.63,-0.027 -5.54,16.918 5.84,39.379 -5.48,28.179 11.53,50.614 -11.02,45.09 0.42,78.82 5.75,22.488 -5.51,22.54 0.33,61.93 5.66,5.6 -5.6,5.66 0.12,22.52 5.9,50.63 -5.6,5.66 0.03,5.63 5.75,22.49 -5.54,16.92 c 14.33,48.72 47.42,72.96 89.64,72.74 l -0.09,-16.89 -16.89,0.09 -0.03,-5.63 22.31,-39.53 c 8.45,-0.04 25.41,14.88 50.91,44.77 8.26,-33.82 15.68,-50.75 22.25,-50.79 l 5.63,-0.03 c 16.92,5.54 32.02,22.35 45.3,50.43 -18.76,0.1 -37.44,17.09 -56.02,50.97 l 56.32,5.33 33.72,-11.44 11.26,-0.06 5.66,5.6 84.35,-17.34 c 5.87,45 13.5,67.48 22.88,67.43 l 16.89,-0.09 5.6,-5.66 5.63,-0.03 0.03,5.63 16.86,-5.72 5.66,5.6 5.63,-0.03 22.49,-5.75 84.65,38.96 c 11.36,18.71 24.55,28.02 39.56,27.94 l -5.54,16.92 c 5.71,14.98 11.38,22.46 17.01,22.43 l 5.63,-0.03 -0.03,-5.63 -5.81,-33.75 11.08,-33.84 -0.39,-73.18 -5.81,-33.75 5.48,-28.18 -0.03,-5.63 -17.46,-106.87 5.6,-5.66 33.78,-0.18 0.24,45.04 -11.02,45.09 0.33,61.93 5.93,56.26 -5.45,33.81 c 2.11,45.03 5.99,67.53 11.62,67.5 l 33.8,5.45 5.6,-5.66 11.38,22.46 0.06,11.26 c -3.69,11.28 -14.92,16.97 -33.68,17.07 l -5.78,-28.12 c -15,3.83 -22.39,24.51 -22.19,62.04 7.5,-0.04 11.29,5.57 11.35,16.83 l 5.63,-0.03 c -0.12,-22.52 3.57,-33.8 11.08,-33.84 l 5.62,-0.03 c 17.16,49.64 32.32,77.71 45.49,84.21 z m -427.91,-8.98 5.63,-0.03 11.05,-39.47 -5.66,-5.6 5.63,-0.03 -5.66,-5.6 5.45,-33.81 -5.75,-22.49 5.36,-50.69 -5.78,-28.12 5.6,-5.66 -0.03,-5.63 -17.25,-67.47 c -52.53,3.1 -78.75,12.62 -78.66,28.57 15.01,-0.08 22.53,3.64 22.57,11.14 l -11.2,11.32 c -0.03,-6.57 -13.2,-12.13 -39.49,-16.68 l -0.03,-5.63 5.42,-39.43 -5.63,0.03 -28.21,-11.11 -5.63,0.03 -5.6,5.66 -5.66,-5.6 -16.89,0.09 -22.43,17 -27.42,-16.76 0.03,5.63 c 11.36,18.7 27.48,28.02 38.74,27.96 l 16.86,-5.72 c 20.73,16.78 32.09,35.49 34.08,56.12 18.76,-0.1 28.18,5.48 28.24,16.74 l 0.03,5.63 11.26,-0.06 5.6,-5.66 5.62,-0.03 11.32,11.2 16.89,-0.09 22.28,-45.16 5.63,-0.03 5.66,5.6 0.06,11.26 -11.2,11.32 17.13,44.95 -5.6,5.66 -11.26,0.06 -0.03,-5.63 5.54,-16.92 -5.63,0.03 c -18.75,2.91 -28.1,8.59 -28.06,17.04 l 0.03,5.63 45.25,39.16 0.03,5.63 -11.2,11.32 c -7.51,0.04 -11.29,-5.57 -11.35,-16.83 l -5.66,-5.6 -5.63,0.03 0.09,16.89 c 0.06,11.26 13.23,16.82 39.5,16.68 l 11.35,16.83 -22.46,11.38 -16.92,-5.54 -5.6,5.66 z m 500.68,-70.23 -0.06,-11.26 16.89,-0.09 -11.2,11.32 z m 123.61,-45.69 11.26,-0.06 5.51,-22.55 -16.95,-11.17 0.06,11.26 -5.63,0.03 z m -788.72,-102.77 5.63,-0.03 -0.06,-11.26 -16.89,0.09 z m 213.87,-12.4 5.6,-5.66 -0.06,-11.26 c -0.04,-6.56 -11.33,-12.13 -33.87,-16.7 l -5.6,5.65 0.03,5.63 c 3.83,15 15.13,22.44 33.9,22.34 z m 95.61,-17.4 28,-28.29 -0.03,-5.63 -22.52,0.12 -5.6,5.66 -5.63,0.03 -5.66,-5.6 -0.03,-5.63 11.2,-11.32 5.66,5.6 11.05,-39.47 c -15.03,-3.67 -22.59,-13.02 -22.67,-28.03 l 5.6,-5.66 16.89,-0.09 107.35,72.62 0.06,11.26 -16.86,5.72 -50.81,-27.88 -16.89,0.09 0.06,11.26 -5.6,5.66 11.32,11.2 5.63,-0.03 c -9.26,24.44 -18.57,37.63 -27.94,39.55 l -11.26,0.06 z m -387.84,-37.36 11.26,-0.06 -11.32,-11.2 -11.26,0.06 z m 77.73,-51.06 16.89,-0.09 -11.32,-11.2 -5.6,5.66 z m 959.84,32.67 -0.12,-22.52 c -15.02,-0.85 -22.54,-4.57 -22.58,-11.13 l -50.61,11.52 0.09,16.89 33.78,-0.18 z m 33.78,-0.18 11.26,-0.06 -0.03,-5.63 -5.66,-5.6 c 6.48,-15.98 23.27,-34.84 50.36,-56.56 l 5.66,5.6 16.89,-0.09 c 7.51,-0.04 11.23,-5.69 11.17,-16.95 l 11.26,-0.06 22.55,5.51 c 22.49,-4.81 33.72,-10.5 33.69,-17.07 l -5.75,-22.49 -50.64,5.9 -22.55,-5.51 -28.03,22.67 -5.63,0.03 -16.97,-16.8 16.85,-5.72 -0.06,-11.26 -22.51,0.12 -28.18,-5.48 0.03,5.63 11.38,22.46 c -8.33,22.56 -15.77,33.86 -22.34,33.9 -4.81,-22.5 -10.5,-33.72 -17.07,-33.69 l -16.8,16.98 5.72,16.86 -28.15,0.15 -5.66,-5.6 -5.63,0.03 -5.6,5.66 0.03,5.63 c 0.05,9.38 20.74,16.78 62.05,22.19 l 11.2,-11.32 11.35,16.83 0.03,5.63 -11.17,16.94 z m -830.51,-61.51 -5.72,-16.86 5.63,-0.03 -5.66,-5.6 -0.03,-5.63 11.17,-16.95 c -15.01,0.08 -22.55,-5.51 -22.61,-16.76 l 39.32,-17.1 22.52,-0.12 16.98,16.8 c 0.06,11.25 -14.93,16.96 -44.95,17.12 l 11.35,16.83 0.06,11.26 -16.8,16.98 z m 112.53,-11.86 -5.66,-5.6 -0.03,-5.63 5.6,-5.66 11.26,-0.06 0.03,5.63 z m -247.85,-26.83 c -0.04,-7.5 11.2,-11.32 33.72,-11.44 l -0.06,-11.25 11.32,11.19 -16.77,22.61 -16.89,0.09 z m 861.33,-4.58 c -11.35,-17.77 -17.07,-34.63 -17.15,-50.58 l -22.49,5.75 -22.55,-5.51 0.06,11.26 c 26.41,26.13 47.12,39.16 62.13,39.08 z m -895.32,-34.64 -5.66,-5.6 -0.03,-5.63 28.12,-5.78 0.06,11.26 z m 56.24,-11.56 16.89,-0.09 0.06,11.26 -5.63,0.03 z m 765.63,-4.08 c -0.08,-14.07 -17.03,-25.24 -50.85,-33.51 0.1,17.83 17.05,29 50.85,33.51 z m -62.14,-39.08 5.63,-0.03 -0.09,-16.89 -78.93,-22.1 0.06,11.26 z m -726.28,-7.39 -0.06,-11.26 16.89,-0.09 0.06,11.26 z m 16.59,-56.39 -0.09,-16.89 11.2,-11.309 11.32,11.189 -11.2,11.32 11.32,11.2 22.43,-17.01 11.32,11.2 0.03,5.63 -28.12,5.78 -16.89,0.09 z m 410.72,-47.219 -0.06,-11.262 16.89,-0.089 -11.2,11.32 z m -332.9,-138.973 -0.03,-5.628 5.63,-0.032 5.66,5.602 5.63,-0.031 22.49,-5.75 5.63,-0.028 0.12,22.52 -16.89,0.09 z m -33.86,-16.707 -5.66,-5.601 -0.06,-11.262 11.2,-11.316 11.32,11.199 z m -84.51,-10.812 -0.15,-28.149 -11.32,-11.199 -16.83,11.348 -11.32,-11.199 -0.15,-28.149 5.66,5.598 39.41,-0.207 5.6,-5.66 5.63,-0.032 -11.38,-22.46 16.89,-0.09 c 0.1,18.769 7.66,28.109 22.67,28.031 l 0.03,5.629 -16.8,16.98 11.38,22.461 c -10.32,0.047 -21.55,5.739 -33.69,17.071 z m -66.8,-10.93 -0.06,-11.258 16.89,-0.089 0.06,11.257 z m 201.76,-17.937 -0.03,-5.633 11.26,-0.059 11.32,11.2 -5.6,5.66 -5.63,0.031 z m 500.65,-75.852 -0.09,-16.89 22.52,-0.122 0.09,16.891 z m 10.9,-67.621 -5.66,-5.598 -0.09,-16.89 16.8,-16.981 5.63,-0.031 0.12,22.52 z m -123.94,-16.23 -0.03,-5.629 11.2,-11.321 c 15.04,5.551 22.58,11.141 22.61,16.77 z m 129.21,-51.36 -0.09,-16.879 11.2,-11.32 5.75,22.488 -5.6,5.653 z m 297.11,-93.789 5.6,-5.66 c -7.59,-16.84 -15.15,-26.191 -22.67,-28.02 l -28.15,0.149 0.03,5.633 c 9.49,18.707 24.55,28.008 45.19,27.898 z m -62.1,-33.441 16.88,-0.09 -0.03,-5.629 c -18.76,0.102 -37.66,-24.199 -56.68,-72.891 l -11.26,0.063 -5.48,28.18 c 0.1,18.757 11.41,28.089 33.93,27.968 l 22.64,22.399"
         style="fill:#ffffff;fill-opacity:1;fill-rule:nonzero;stroke:none"
         id="path44" />
      <path
         d="m 5594.16,1628.67 c 0,0 -4.88,-13.44 -5.78,-20.48 -1.09,-8.51 -0.73,-30.58 -0.73,-30.58 0,0 2.1,-17.25 2.1,-33.54 0,-8.97 -2.11,-17.96 -2.11,-22.88 0,-13.84 0.12,-50.57 0.12,-50.57 0,0 9.42,-5.49 18.05,0 4.22,2.68 8.62,18.52 12.38,18.52 5.66,0 2.9,-14.47 11.72,-18.52 4.01,-1.85 14.45,2.55 14.45,2.55 l 20.64,-5.07 c 0,0 8.23,1.97 9.57,2.52 7.17,2.92 -0.11,12.71 0,23.43 0.05,4.76 3.17,9.56 3.76,14.52 0.92,7.71 15.27,13.27 5.61,12.32 -2.07,-0.2 -7.33,-1.69 -9.37,0.3 -6.92,6.78 -15.79,5.37 -20.84,11.69 -5.99,7.5 -4.33,24.72 -7.35,30.61 -3.57,6.96 -4.57,15.08 -5.2,22.88 -0.86,10.86 6.5,56.52 0,42.3 -6.49,-14.23 -14.71,27.33 -22.54,27.33 -7.84,0 -24.48,-27.33 -24.48,-27.33"
         style="fill:#ffffff;fill-opacity:1;fill-rule:evenodd;stroke:none"
         id="path46" />
      <path
         d="m 5699.04,1540.16 c 0,0 -4.56,2.04 -4.56,3.91 0,0.67 4.56,7.32 4.56,7.32 0,0 6.97,1.3 9.88,6.25 2.12,3.62 9.84,-0.98 14.53,0 4.69,0.97 10.16,-1.43 13.62,5.85 l -3.11,-13.63 c 0,0 -3.9,-4.17 -5.12,-5.79 -0.9,-1.19 -2.19,-3.91 -2.19,-3.91 0,0 -12.72,3.06 -13.88,0 -1.27,-3.33 -3.76,1.21 -5.7,1.21 -2.29,0 -8.03,-1.21 -8.03,-1.21"
         style="fill:#ffffff;fill-opacity:1;fill-rule:evenodd;stroke:none"
         id="path48" />
      <path
         d="m 5713.01,1523.82 c 0,0 -2.18,-0.35 -2.58,-1.03 -0.14,-0.24 -5.44,-3.86 -5.44,-3.86 0,0 -3.51,2.28 -4.11,2.21 -0.71,-0.09 -1.57,-0.48 -1.84,0.82 l 3.14,2.84 c 0,0 1.73,0.1 2.35,0.3 0.43,0.14 1.39,0.93 1.39,0.93 0,0 1.23,-0.91 2.09,0.08 0.93,1.08 1.5,-0.13 2.14,-0.43 0.83,-0.38 2.86,-1.86 2.86,-1.86"
         style="fill:#ffffff;fill-opacity:1;fill-rule:evenodd;stroke:none"
         id="path50" />
      <path
         d="m 801.379,1669.08 -10.559,8.27 -13.242,19.56 -1.129,-22.51 c 0,0 -2.41,-29.98 -1.859,-45.73 0.59,-16.98 4.219,-19.97 6.699,-24.37 7.289,-12.96 22.02,-4.52 20.09,-12.95 -4.07,-17.87 -15.891,-8.06 -18.07,-23.8 -2.11,-15.24 -3.637,-58.83 -1.911,-76.46 0.903,-9.21 15.18,8.53 26.883,45.21 2.25,7.07 7.629,12.27 13.188,16.3 2.64,1.91 20.09,-4.7 22.5,-3.23 2,1.22 -4.848,4.96 -7.5,8.27 -2.047,2.55 0.011,4.85 0.601,5.55 3.301,3.93 7.75,6.68 12.41,9.09 4.942,2.56 15.02,6.25 19.34,8.98 5.821,3.69 5.18,6.88 5.121,15.02 -0.152,19.88 -12.019,23.24 -12.019,23.24 l -24.852,13.62 c 0,0 0.032,26.34 0,28.62 -0.011,1.08 -11.968,-4.08 -20.332,-2.6 -9.41,1.67 -15.359,9.92 -15.359,9.92"
         style="fill:#ffffff;fill-opacity:1;fill-rule:evenodd;stroke:none"
         id="path52" />
      <path
         d="m 784.309,1312.93 8.23,20.6 c 0,0 1.691,16.23 15.742,23.57 14.039,7.33 35.688,14.77 35.688,14.77 l 14.66,-2.44 -33.438,-35.9 c 0,0 -0.929,-3.79 -16.91,-20.6 -15.992,-16.81 -23.972,0 -23.972,0"
         style="fill:#ffffff;fill-opacity:1;fill-rule:evenodd;stroke:none"
         id="path54" />
      <path
         d="m 781.91,1386.17 v 33.58 l 4.809,0.88 c 0,0 -0.41,-30.21 4.812,-27.03 5.231,3.17 8,-4.14 5.231,-14.78 -2.782,-10.63 -10.043,-12.48 -10.043,-12.48 l -4.809,19.83"
         style="fill:#ffffff;fill-opacity:1;fill-rule:evenodd;stroke:none"
         id="path56" />
      <path
         d="m 5675.66,1460.38 -2.24,-8.68 3.48,-3.08 h 4.59 l 1.2,2.65 -1.2,4.83 -2.88,5.28 -2.95,-1"
         style="fill:#ffffff;fill-opacity:1;fill-rule:evenodd;stroke:none"
         id="path58" />
    </g>
  </g>
</svg>
