<svg xmlns="http://www.w3.org/2000/svg" viewBox="0 0 64 64" width="64" height="64">
  <defs>
    <!-- Cosmic Swirling Universe Gradient for the arch interior -->
    <radialGradient id="universeGradient" cx="50%" cy="50%" r="50%">
      <stop offset="0%" stop-color="#7dd3fc" />
      <stop offset="50%" stop-color="#6d28d9" />
      <stop offset="100%" stop-color="#1e3a8a" />
    </radialGradient>

    <!-- Filter to add a subtle swirl effect -->
    <filter id="swirlFilter" x="0" y="0" width="200%" height="200%">
      <feTurbulence type="fractalNoise" baseFrequency="0.05" numOctaves="3" result="noise" />
      <feDisplacementMap in="SourceGraphic" in2="noise" scale="5" />
    </filter>

    <!-- Brick Pattern for the arch outline -->
    <pattern id="brickPattern" width="8" height="4" patternUnits="userSpaceOnUse">
      <rect width="8" height="4" fill="#9ca3af" />
      <path d="M0,0 L8,0 M0,4 L8,4 M0,0 L0,4 M8,0 L8,4 M4,0 L4,4" stroke="#6b7280" stroke-width="0.5" />
    </pattern>

    <!-- U-Shaped Archway ClipPath -->
    <!-- The archway covers most of the icon:
         - Starts at bottom left (8,64)
         - Rises vertically to (8,16)
         - Draws a semicircular arc from (8,16) to (56,16) with radius 24
         - Drops vertically to bottom right (56,64)
         - Closes the shape -->
    <clipPath id="archClip">
      <path d="M8,64 L8,16 A24,24 0 0,1 56,16 L56,64 Z" />
    </clipPath>
  </defs>

  <!-- Solid black background -->
  <rect x="0" y="0" width="64" height="64" fill="#000000" />

  <!-- Arch interior: swirling universe pattern, clipped to the U-shaped arch -->
  <g clip-path="url(#archClip)">
    <rect x="8" y="0" width="48" height="64"
          fill="url(#universeGradient)" filter="url(#swirlFilter)" />
  </g>

  <!-- Arch outline drawn with the brick pattern -->
  <path d="M8,64 L8,16 A24,24 0 0,1 56,16 L56,64 Z"
        fill="none" stroke="url(#brickPattern)" stroke-width="3" />
</svg>
